<?xml version="1.0" standalone="no"?>
<!DOCTYPE svg PUBLIC "-//W3C//DTD SVG 1.1//EN" "http://www.w3.org/Graphics/SVG/1.1/DTD/svg11.dtd" >
<svg xmlns="http://www.w3.org/2000/svg" xmlns:xlink="http://www.w3.org/1999/xlink" version="1.1">
<metadata></metadata>
<defs>
<font id="bobby_j_serif_regularregular" horiz-adv-x="643" >
<font-face units-per-em="2048" ascent="1536" descent="-512" />
<missing-glyph horiz-adv-x="409" />
<glyph horiz-adv-x="0" />
<glyph horiz-adv-x="682" />
<glyph unicode=" "  horiz-adv-x="409" />
<glyph unicode="&#x09;" horiz-adv-x="409" />
<glyph unicode="&#xa0;" horiz-adv-x="409" />
<glyph unicode="!" horiz-adv-x="425" d="M104 1380q-3 20 2 33h5q8 2 28 2q10 1 31.5 2t32.5 2q23 0 63 4q10 2 29 2h6q12 -4 16 -4q1 -2 3.5 -6t3.5 -6q-1 -2 -3.5 -5t-3.5 -5t-3 -7.5t-3 -7.5l-4 -8q-2 -2 -2 -8q-1 -8 -3 -24.5t-3 -24.5q-8 -74 -10 -111q-1 -16 -2 -48.5t-2 -49.5v-53v-29q-4 -107 -11 -176 q-6 -45 -6 -135q-2 -25 -2 -76q-3 -18 4 -35q0 -16 -2 -22h-14q-45 -5 -64 -11h-6q-12 0 -18 2h-4q-23 3 -43 9q-4 4 -4 8q12 34 12 76q-1 76 -2 229t-2 229v199q0 10 -2 16v13l-6 12zM109 78l4 -8q2 -4 7 -13.5t7 -13.5q20 -27 51 -35q8 -4 12 -4q2 0 5.5 1t5.5 1 q28 9 43 27q45 48 45 104q0 21 -2 31q0 4 -4 12v4l-37 43l-31 13q-61 -12 -88 -52q-29 -43 -18 -110z" />
<glyph unicode="&#x22;" horiz-adv-x="397" d="M102 1251q0 92 2 131v7l7 8q14 4 45 4l4 -2q4 -54 4 -82q0 -27 -2 -45q0 -7 -10 -17l-46 -10q-4 2 -4 6zM233 1260q-3 72 3 143q6 12 22 12h2q21 -4 31 -12l4 -2q-1 -12 -2 -35t-2 -35q-2 -18 -10 -49q0 -1 -5 -16q-11 -11 -24 -11q-3 0 -8 1t-8 1q-3 1 -3 3z" />
<glyph unicode="#" horiz-adv-x="1118" d="M102 791v151q1 2 2 6t2 6q6 12 9 15h2q2 0 2 -2h10q13 -3 23 0h10q34 0 76 10q20 4 32 6q20 4 23 23q0 1 1 3t1 3q5 21 4 28q-4 40 -8 56v10q0 8 -4 24q-7 16 6 29q1 0 2 1t2 1q16 4 55 4h13h112q2 -2 2 -10q1 -3 1 -14t-1 -19q0 -1 1 -4t1 -4q-7 -37 4 -96q3 -16 17 -23 h2q28 -12 43 -12q4 0 15 1t20 1q15 5 18 8l12 13q9 9 9 18v18q2 14 2 43q0 4 -1 13.5t-1 13.5q0 1 -1.5 4t-1.5 4q0 9 -6 15q0 2 -4 6q0 12 2 18q8 2 21 2q55 2 176 2q10 0 18 -4q-3 -8 -8 -16q-13 -32 -14 -41q-6 -42 0 -76q3 -12 12 -18q31 -23 94 -23h13h14q4 -2 12 -2 q32 0 56 8v-2q10 -15 8 -28q-11 -60 -8 -148q-6 -9 -15 -12q-9 2 -19 3t-22.5 1.5t-19.5 1.5h-21q-5 1 -15 2t-15 2q-6 2 -15 2l-4 2q-12 0 -20 -8q-27 -25 -21 -64v-8q5 -42 29 -59q1 -1 3 -2t3 -2q23 -8 63 -8h11h12h2q8 0 10 2l60 26l2 -4q4 -106 4 -174q-2 -4 -2 -10 l-2 -2q0 -6 -2 -8q2 2 2 1.5t-2 -3.5l-2 -5h-60h-8h-45h-21q-9 0 -18 -6l-16 -14q-11 -7 -11 -21q-2 -35 7 -112q4 -14 8 -17l14 -16v-10l-2 -2q-8 -2 -27 -2q-74 -2 -192 -2q-2 2 -5.5 8t-4.5 8q2 2 2 6q1 2 2 7.5t2 7.5v12l-2 18q-8 57 -10 78q-1 5 -3.5 10t-5.5 8.5 t-4 4.5q-4 4 -8 4q-15 12 -35 12q-25 0 -45 -25q-3 -1 -8 -12q-2 -12 -2 -63v-25q0 -19 8 -39q0 -8 -4 -20h-4q-10 -2 -30.5 -5.5t-30.5 -5.5q-50 -4 -76 -4q-18 0 -84 4h-4v9q11 17 12 20v2q4 4 4 14q4 58 -6 101q-5 14 -19.5 24.5t-29.5 10.5h-2q-6 0 -20 -1t-21 -1 l-17 -2q-6 0 -10 -2l-39 -21q-1 0 -2 1t-2 1q-7 0 -10 6v4v2q-4 118 -4 183l6 12q2 2 2 4l4 2q-1 0 1 2q3 3 3 4l6 2q28 -4 47 -4q7 0 22.5 1t22.5 1q8 2 27 2q11 0 19 8l10 11q8 8 8 14q13 49 -4 80q-3 5 -8 8q-11 11 -45 21q-11 0 -19 4q-6 6 -16 6q-1 0 -3 -1t-3 -1 l-80 -19h-4l-6 4q-2 0 -7 5zM498.5 728.5q-0.5 -18.5 13.5 -44.5q6 -9 14 -12q13 -8 33 -8q4 0 12 1t11 1q12 4 16 8l12 10q11 11 11 23v38q0 14 -11 21l-12 12q-8 8 -18 8h-41q-15 0 -25 -14q-15 -25 -15.5 -43.5z" />
<glyph unicode="$" horiz-adv-x="940" d="M102 307q2 20 17 45q23 30 78 82q4 2 12 5t12 5q14 3 25 0l2 -2q11 -38 55 -73q7 -5 49 -33q12 -6 25 -6q18 0 32 11t15 28v6q2 4 2 14v14v162q0 11 -4 27q0 8 -2 12q0 9 -12 21q-2 1 -6.5 3t-6.5 3q-9 9 -20 12q-91 42 -172 135q-20 24 -29 47q-4 14 -11 39.5t-11 38.5 q-4 14 -9 25v8v35q0 63 4 94q15 75 78 158q5 7 12.5 15t13 13t16 14t14.5 13q8 8 12 10q18 18 55 27q2 2 8 2q11 3 29 10q8 3 21 16q1 1 2 2.5t2 2.5q11 11 8 22q0 17 -6 29l2 2q0 2 2 2q1 1 2 3t2 3h2q0 2 2 2q8 4 12 8h47q40 0 58 -2q13 -7 16 -20q0 -4 -2 -6q-3 -9 0 -19 q0 -12 6 -18l4 -4q10 -20 27 -25q61 -19 129 -59q17 -10 29 -15q0 -1 1 -4.5t1 -5.5t-1 -7t-1 -7q0 -1 -1 -2t-1 -2q-8 -13 -22 -31.5t-19 -24.5q-64 -63 -76 -77l-10 -13q-9 -6 -19 -16q-2 0 -4 -2l-27 2q-1 0 -2 1t-2 1q-10 0 -18 -8.5t-10 -20.5q-4 -43 0 -129 q0 -15 8 -31v-2q1 -2 10 -16q2 -2 2 -4q8 -8 12 -10q3 -1 9.5 -4t9.5 -4q20 -10 41 -19q3 -2 10 -6t10 -6q12 -6 21 -12q23 -12 59 -48q74 -77 103 -198v-19q2 -10 2 -30v-37q3 -90 -23 -152q-2 -7 -6 -21.5t-6 -21.5q0 -6 -4 -18q0 -1 -1 -2t-1 -2q-12 -16 -21 -31 q-39 -76 -143 -113q-2 0 -5 -1t-5 -1q-39 -9 -56 -30q-6 -6 -6 -17q0 -21 4 -29q-4 -12 -8 -18h-8q-21 -1 -62 -2t-61 -2q-7 11 -10 22q5 16 2 33q-9 28 -39 41q-2 2 -8 4t-7 2h-4q-37 13 -118 58q-3 1 -21 10q-25 14 -43 35q-8 9 -24.5 26.5t-24.5 26.5l-14 14q-3 3 -9 6 q-2 10 -2 31zM346 950q6 -12 23 -12q0 -2 2 -2q13 0 20 10q38 38 4 88q-7 13 -22 13q-14 0 -25 -11q-30 -41 -2 -86zM549 469l2 -16q0 -10 1 -32t1 -34q3 -15 8 -20h2q7 -15 25 -15h2q18 4 24 19v2q9 13 9 24v76q0 12 -7 19h-2q-7 13 -18 16h-6q-12 0 -21 -6l-10 -10 q-10 -10 -10 -23z" />
<glyph unicode="%" horiz-adv-x="1157" d="M104 973q-3 19 0 41v18q4 12 9 17q13 31 20 41q25 49 74 71q5 2 12 5.5t11.5 5.5t7.5 4h2q24 8 51 8q52 0 121 -41l8 -8q25 -25 29 -31q34 -37 34 -86v-62v-16q-18 -57 -55 -84q-42 -34 -90 -37q-12 -2 -41 -2h-8q-70 0 -127 45q-49 40 -58 111zM147 369q0 2 1.5 6.5 t1.5 5.5q2 2 4 2q2 1 7 2t7 2q6 2 14 10q37 47 133 148q52 56 76 84q40 46 129 139q13 15 40 43.5t40 42.5q13 13 29 33q24 28 33 37q13 15 63 65q8 9 25.5 26.5t25.5 26.5q13 13 29 33q2 2 5 6t5 6q5 8 8 19v16v15q15 10 19 12q2 -2 10 -6q12 -8 38 -28t42 -30 q12 -9 35 -28.5t34 -28.5q2 -2 6 -4.5t5 -3.5q2 -4 6 -8q-2 -7 -6 -15q-22 -5 -27 -8l-24 -6q-1 -1 -4.5 -2t-4.5 -2q-9 -7 -19.5 -16.5t-17 -17t-18 -20t-16.5 -18.5q-2 -3 -17 -18q-3 -3 -8 -10.5t-8 -10.5q-2 -3 -7 -9t-7 -9q-26 -28 -116 -123.5t-147 -157.5 q-46 -52 -47 -53q-103 -111 -164 -174q-46 -46 -61 -92q-8 -4 -14 -6q-2 1 -5.5 3t-5.5 3q-90 73 -118 108q-1 2 -4.5 5.5t-4.5 5.5zM236 1004q0 -11 2 -15q2 0 2 -4q1 -3 2.5 -6t4 -7t3.5 -7q20 -33 55 -33q18 0 31 8q27 10 33 39q6 23 -11 47q-26 33 -61 33q-5 0 -21 -4 q-37 -9 -40 -51zM670 399q0 25 2 37v15q24 59 56 94t87 51q1 0 8 1t11 1q8 2 24 2q54 0 113 -37q28 -18 49 -49q36 -56 33 -108q-2 -14 -2 -37v-4q0 -7 -2 -9q0 -2 -1 -5.5t-1 -4.5q-22 -71 -117 -106q-16 -4 -25 -4q-27 -3 -53 -3h-12q-32 0 -80 23q-84 46 -90 143z M801 414q2 -22 14.5 -39t32.5 -23q8 -4 22 -4q21 0 45 17q17 13 20.5 34.5t-7.5 38.5q-21 30 -60 41q-2 2 -8 2t-10 -2q-49 -17 -49 -65z" />
<glyph unicode="&#x26;" horiz-adv-x="1290" d="M106 336q-15 98 27 186q47 96 94 148q32 32 39 37q4 4 13.5 12t13.5 12l8 8q6 4 10 15q7 23 -12 55q-2 0 -2 2q-55 76 -82 186q-7 26 -10 47q-1 3 -2 10.5t-2 10.5q-5 37 -6 39q-14 55 8 123q26 81 67 114q25 20 35 25q57 31 127 45q2 0 8 1t9 1q10 0 14 -2 q115 -15 194 -49q10 -2 25 -10q15 -10 18 -11q30 -15 50 -38l4 -7q34 -37 47 -63q50 -85 26 -207q-23 -113 -129 -219q-10 -10 -22 -19q-9 -9 -21 -18q-3 -3 -7.5 -8.5t-6.5 -7.5q0 -1 -1 -3t-1 -3q-9 -9 -6 -27q2 -2 2 -4q0 -10 10 -23q54 -61 156 -155l12 -13q8 -8 21 -8 q2 0 14 4q0 1 3 2q1 1 1.5 1t1.5 1q10 4 20 13q10 10 31 31.5t33 33.5q9 12 25 25q6 12 6 14l2 10q4 12 4 21l12 12l4 -4q100 -89 148 -156q15 -21 35 -41q2 -2 6 -7t6 -7q3 -17 -6 -29q-9 0 -13 -2q-3 0 -8 -1t-8 -1q-3 -1 -10.5 -2t-10.5 -2q-6 0 -10 -2q-4 0 -12 -4 l-6 -6q-15 -10 -19 -14q-22 -19 -41 -41q-4 -2 -8.5 -8t-5.5 -7q-4 -4 -8 -12q-11 -31 10 -61q26 -34 60 -58q2 0 5 -1t5 -1l43 -8q4 -12 4 -18q-53 -79 -119 -142q-36 -36 -67 -63l-19 -15q0 -1 -1 -2t-1 -2q-4 0 -16 4q-6 60 -54 105q-6 5 -17 15.5t-17 15.5l-17 14 q-8 8 -18 8q-2 0 -6.5 -1t-6.5 -1q-2 -2 -6 -2q-2 -2 -10 -5.5t-12 -6.5q-27 -19 -41 -31q-6 -4 -19 -14.5t-20 -14.5q-41 -30 -94 -39q-5 -1 -14.5 -3t-14.5 -3q-32 -8 -49 -8h-33q-43 0 -76.5 6.5t-99.5 28.5l-4 4q-12 9 -27 18q-93 52 -145 201q-14 48 -17 76zM336 354 q14 -73 72 -104q4 -2 10 -2q24 -6 57 -6q36 0 60 8q66 21 104 57q8 12 8 21q0 36 -29 65q-39 43 -110 137q-12 16 -21 25q-6 12 -22 12q-2 0 -5.5 -1t-4.5 -1q-2 -2 -6 -2q-17 -4 -29 -16q-24 -32 -38 -53t-28.5 -58t-17.5 -74v-8zM432 1094q-14 -79 21 -142q4 -4 8 -12 l4 -8v-2q1 -1 2 -3t2 -3q14 -25 41 -25q30 0 43 27q6 12 16.5 32.5t16.5 32.5q2 4 6 13.5t6 13.5q4 13 2 20q-5 15 -6 17q-2 10 -6 22q-9 38 -45 64q-18 12 -39 12q-18 0 -31 -8q-37 -18 -41 -51z" />
<glyph unicode="'" horiz-adv-x="462" d="M102 1251q0 9 2 13q1 1 11 6q2 2 7 5t7 5q4 2 10 8l17 27q42 60 45 65q13 15 20 41q4 4 4 11q0 4 2 4l4 6q4 4 9 4q1 1 4 3t4 3h10q37 0 76 -27q8 -8 12 -10q1 -2 3 -5t3 -5v1l2 -3q4 -4 4 -8q0 4 2 0v-9v-2q-37 -18 -61 -61q-9 -19 -41 -76l-18 -33q-2 -2 -2 -12l-5 -43 q-1 0 -3.5 -1t-4.5 -1q-71 29 -123 94z" />
<glyph unicode="(" horiz-adv-x="630" d="M102 907q0 23 11 60q4 20 6 32q18 104 53 232q37 120 104 258q2 6 8 17t7 12l8 14q4 12 2 18l-2 17q6 8 14 14q6 -1 20 -4t23 -4q6 -1 18.5 -3t18.5 -3q24 -4 39 -4q7 -1 21.5 -3.5t21.5 -3.5q5 -1 15.5 -3t15.5 -3q4 -2 10 -2l4 -4v-22q-2 -2 -5.5 -6t-4.5 -5v-2 q-4 0 -8 -4l-2 -2q-14 -14 -17 -18q-3 -6 -9.5 -19.5t-10.5 -21.5q-12 -23 -57 -121q-24 -52 -50 -135q-1 -3 -2 -9.5t-2 -9.5q-34 -103 -55 -282q-2 -2 -2 -8q0 -9 -2 -13q-27 -98 0 -217q0 -44 14 -98q8 -41 10 -57q6 -52 39 -160q50 -151 152 -373q2 -2 2 -4 q9 -12 18 -18q0 -16 -8 -27q-26 -17 -49 -25q-26 -8 -106 -45q-7 0 -11 2q-2 0 -4.5 1t-3.5 1l2 13q0 10 -2 16l-6 12q-7 21 -16 39q-38 65 -74 189q0 6 -2 8q-6 24 -8 29q-32 71 -56 178q-2 8 -6 23.5t-6 23.5q-14 57 -39 178q-2 11 -6 32.5t-6 33.5q-2 6 -2 24v12 q-2 6 -2 19t-4 45q-9 37 -9 76v41q0 44 -2 69z" />
<glyph unicode=")" horiz-adv-x="634" d="M102 -27q9 9 21 15q29 25 39 51q12 30 24 57q41 102 70 176q43 115 66 246q2 14 7 41t7 41q5 35 6 41q22 121 0 236q-8 31 -14 75q-3 31 -9 56l-2 12q-15 81 -20 104q-57 200 -133 340q-2 3 -6 9.5t-6 9.5q-1 1 -3.5 3t-3.5 3l-6 6l-4 4l-6 12q1 1 3 3.5t3 3.5q0 2 4 6 q40 16 58 20q17 4 46 14t31 11q32 11 56 16q1 -1 3 -2t3 -2l-6 -20q-4 -12 2 -21q1 -2 3 -7t3 -7q8 -19 16 -33q105 -190 146 -414l2 -8q16 -75 18 -84q12 -55 12 -123q-2 -14 -2 -41q0 -86 -10 -127q-4 -8 -4 -22q-4 -87 -45 -264q-2 -8 -6 -26t-6 -26q-18 -75 -56 -188 q-5 -13 -26 -88q-2 -8 -7.5 -24.5t-7.5 -24.5l-4 -13q-16 -64 -43 -112q-8 -13 -18 -47q0 -6 -2 -8t-6 -5.5t-6 -5.5q-64 16 -148 82q-15 12 -26 23q-7 14 -7 26z" />
<glyph unicode="*" horiz-adv-x="970" d="M106 1282q3 2 5 4q13 10 28 10h23q37 0 55 2q20 3 34 18.5t17 37.5v8q-3 18 -22 61q-8 17 -10 23q-5 5 -5 8q-2 3 -3.5 6t-2.5 6t-2 4q-2 17 6 29q7 7 13 10q59 36 116 56h4q9 0 15 -6q18 -13 24 -31q8 -35 37 -98q2 -5 7 -10.5t6 -6.5q1 0 2 -1t2 -1q8 -12 30 -12 q26 0 37 16l4 4q12 19 13 21q2 4 14 33q3 6 8 18t8 18q21 41 56 52q19 -6 84 -37q9 -2 22 -11q1 -1 6 -10q0 -24 -8 -43l-12 -24q-1 -3 -11.5 -25.5t-15.5 -34.5q-20 -48 25 -73q10 -5 14 -5l96 -2q15 -6 23 -22q13 -39 16 -51q6 -30 -2 -49q-3 -13 -37 -35l-94 -2 q-10 0 -14 -2q-20 -10 -26.5 -29t1.5 -37q6 -13 10 -27q20 -38 31 -73q3 -6 -4 -17q-17 -19 -45 -32q-28 -14 -74 -31q-6 -2 -14 -2q-15 0 -23 10q-6 6 -10 12q-1 0 -2 1t-2 1q0 2 -1 6.5t-1 6.5q-30 78 -51 110q-14 17 -37 17q-21 0 -35 -17q0 -1 -1 -3t-1 -3 q-6 -6 -12 -18q-30 -63 -33 -68q-8 -21 -39 -49q-6 -6 -16 -6q-1 0 -4.5 1t-5.5 1q-13 5 -39.5 16.5t-40.5 16.5l-11 4q-12 8 -12 20q4 36 12 51q4 7 16 30.5t19 37.5q16 32 -12 63q-5 8 -14 11q-1 0 -4.5 1t-4.5 1q-20 8 -32 8q-10 2 -31 2h-14q-20 1 -26.5 6.5t-14.5 26.5 q-16 48 -7 98z" />
<glyph unicode="+" horiz-adv-x="649" d="M102 800v1v4v4q1 11 4.5 33t4.5 35q2 2 2 4h2v2l4 4l4 2h4h2q2 -1 5 -2t5 -2q2 -2 11 -2h4q10 -2 30 -2q34 0 58 6q10 3 18 14q15 28 17.5 62.5t-1.5 58.5q-2 2 -2 4q1 2 9 10q1 0 5.5 3.5t8.5 4.5q5 0 15.5 1.5t15.5 1.5q21 0 57 -9q0 -17 -4 -37q0 -14 -2 -22v-2v-8 q0 -11 4 -23q0 -16 10 -26v-7q6 -13 17 -18q2 0 4 -2q15 -10 28 -10h15q14 -2 41 -2q24 0 34 2q6 -2 13 -9q3 -46 0 -94q-5 -4 -15 -8l-18 -6h-2q-5 0 -17 1t-18 1q-48 0 -80 -20q-6 -3 -10 -11q-12 -25 -12 -65v-15v-26q-25 -35 -60 -35q-25 0 -41 16q-2 3 -2 9 q-4 12 -4 14q3 30 -4 63q-3 17 -18.5 33t-32.5 19q-36 4 -53 4h-2q-25 8 -37 18q-4 4 -6 4q-1 2 -3.5 6t-3.5 6z" />
<glyph unicode="," horiz-adv-x="423" d="M102 -100q0 8 11 30t14 27q62 118 94 158q2 0 7 1t8 1q2 0 22 -4q4 -4 8 -4q5 -4 15.5 -11.5t15.5 -11.5q3 -2 20 -25q4 -4 0 -12q-6 -17 -16 -31q-19 -28 -47 -69.5t-37 -54.5q-19 -28 -45 -37q-29 6 -61 28q-7 7 -9 15z" />
<glyph unicode="-" d="M102 713v8v31q0 71 2 108q2 10 11 21v2l4 4l2 2q21 -8 57 -8h2h17q59 0 145 -11q35 -6 82 -6q7 0 23 1t24 1h16q21 0 45 8h3l6 -6v-4q-9 -26 -13 -82v-10q0 -37 -2 -55v-2q0 -1 -6 -4h-2q-4 1 -22 10q-4 5 -15 8q-4 2 -12 2h-4q-4 0 -14 -1t-15 -1q-27 -6 -53 -6h-16h-39 q-10 2 -27 2h-10h-6h-41q-39 0 -62.5 -5t-62.5 -20q-6 2 -17 13z" />
<glyph unicode="." horiz-adv-x="364" d="M102 86q1 2 2 7t2 7q10 40 13 47q17 41 65 41q15 0 31 -8q39 -26 45 -76q6 -35 -12 -61q-9 -16 -28 -26.5t-40 -10.5q-14 0 -30 8q-24 14 -29 29q-5 9 -15 33q-1 2 -2 5t-2 5z" />
<glyph unicode="/" horiz-adv-x="983" d="M102 47q24 31 52 92q13 32 35.5 93t33.5 87q59 165 183 463q2 5 7.5 17t8.5 18q48 118 59 154q2 8 33 82q2 4 10 21t11 26q37 98 45 129q3 11 26 74q8 20 12 32q3 7 9.5 21.5t9.5 21.5t8.5 21t7.5 20q12 35 9 62l4 8l4 4v2h4q0 4 6 4h2q8 0 14 2q39 8 84 8q54 -7 88 -14 q7 0 11 -2q2 -6 2 -18q-9 -9 -11 -13q-2 -2 -6 -5t-6 -5q-6 -6 -6 -12q-17 -57 -78 -219q-43 -104 -69 -191q-7 -22 -15 -35q-34 -77 -59 -159q-31 -94 -92 -242l-11 -29q-7 -13 -20 -49q-18 -41 -45 -113q-18 -51 -76 -165q-5 -11 -17.5 -36.5t-17.5 -39.5q-20 -40 -30 -56 q-26 -50 -13 -88l-4 -4q-55 -10 -96 -10q-35 0 -76 6q-28 9 -31 37z" />
<glyph unicode="0" horiz-adv-x="899" d="M102 539v2v116v50v8v59q0 101 4 148q12 188 91 331q33 62 92 115q49 43 102 43q2 0 6 1t6 1h23h14q40 0 125 -33q2 -1 6.5 -3.5t8 -5t6.5 -5.5q60 -50 82 -90q11 -18 20 -37t18.5 -42t15.5 -38t17 -44.5t15 -41.5q1 -5 4.5 -12.5t3.5 -9.5q1 -3 2 -12t2 -13v-2 q3 -42 12 -72q2 -8 2 -30l2 -4v-23q4 -67 13 -96v-43q4 -92 -7 -138q-4 -24 -4 -34v-2q-15 -169 -96 -332q-59 -106 -84 -137q-5 -6 -15.5 -18.5t-15.5 -18.5q-46 -52 -118 -70q-20 -4 -31 -4q-30 0 -80 21q-12 8 -20 14q-102 89 -148 186q-52 99 -57 170q-2 2 -2 6 q-15 48 -15 140zM283 629q0 -79 12 -146q12 -60 39 -125q1 -4 18 -32l2 -2q22 -31 64 -31q30 0 53 20q30 26 53 80q43 110 62 312q5 66 2 145v74q2 36 -15 114q-1 8 -4 23.5t-4 23.5q-2 23 -18 62q-24 56 -82 65h-4h-8q-46 -15 -66 -51q-83 -155 -92 -297q0 -17 -4 -45 q-8 -31 -8 -71v-52v-67z" />
<glyph unicode="1" horiz-adv-x="663" d="M102 950v117v41q9 40 35 66q13 13 37.5 37t36.5 36q70 73 143 146q16 16 41 16l19 2q11 0 34.5 1t36.5 1q9 0 25 -1t22 -1l11 -8q16 -102 16 -152v-207q2 -41 2 -126q0 -72 -2 -109v-23v-12q0 -23 -2 -33q-12 -43 -12 -127v-20q-2 -119 -2 -356q0 -22 -1 -64t-1 -63 q0 -13 2 -19q0 -31 16 -57q2 -8 2 -29q-24 -6 -47 -6q-37 0 -109 -1t-108 -1q-6 9 -6 20q39 45 39 105v6q2 14 2 45v752q0 17 -4 53q-3 35 -43 51q-1 0 -5 1t-6 1q-4 0 -12 -4q-4 -2 -15.5 -7.5t-17.5 -8.5q-12 -6 -33 -17.5t-32 -17.5q-19 -10 -25 -14q-28 -11 -37 -13z " />
<glyph unicode="2" horiz-adv-x="868" d="M104 23q-3 25 0 47q0 88 2 133q0 7 3 22t4 19v4q9 35 30 61q2 3 7.5 9.5t7.5 9.5q5 5 17.5 20t19 21.5t17 17.5t20 18.5t20.5 14.5q16 11 33 31q13 18 32 41q70 88 89 124q2 4 24 37q3 4 8 11.5t8 11.5q2 3 6.5 10t6.5 10l14 21q52 82 76 215q18 87 -10 172 q-14 43 -64 84q-9 9 -35 14q-8 2 -18 2q-22 0 -57 -14q-12 -4 -15 -12l-33 -60q-16 -16 -43 -16q-12 0 -20 2q-47 12 -102 12q-18 10 -21 23q0 4 -4 16l-2 6q2 2 2 8q3 8 8 37q24 104 127 156q65 32 125 47q36 4 55 4q76 0 156 -27q76 -41 117 -143q4 -9 9.5 -23t6.5 -16 q14 -33 17 -50t4 -81v-4v-49v-51q3 -139 -70 -273l-12 -24q-6 -10 -17.5 -32t-17.5 -32q-42 -76 -172 -233l-8 -10q-4 -4 -11.5 -12.5t-11.5 -12.5l-8 -10q-6 -9 -6 -19q0 -4 -2 -6q0 -14 2 -22q3 -14 18 -29q17 -10 33 -10q10 0 31.5 -1t31.5 -1q24 0 73 -1t73 -1h29 q8 0 12 4q13 5 22 14q2 1 6.5 3t6.5 3q4 0 6 -2q0 -7 6 -16v-213q0 -2 -1 -8t-1 -9q-2 -2 -4 -2q-2 -2 -15 -2h-24q-82 0 -123 -12h-12q-4 0 -14 1t-15 1l-6 2q-47 8 -180 8q-109 0 -146 -8q-10 -2 -32 -2q-40 0 -84 14z" />
<glyph unicode="3" horiz-adv-x="907" d="M102 307v35q0 10 9 23q5 1 15 4t15 4q74 13 144 33l2 -5l4 -8q2 -6 5 -19.5t5 -19.5q0 -29 18 -53q29 -47 80 -72q4 -2 11 -2h10q53 0 92 43q37 35 59 95q0 6 2 8v12q0 25 2 37q4 45 -16 123l-6 18q-15 56 -74 80q-24 8 -37 8q-22 0 -43 -14q-1 0 -2 1t-2 1q-4 4 -4 6 q-3 84 10 152q7 32 7 55v8l14 14l12 -6q16 -4 27 -4q29 0 45 23l6 6q15 19 23 37q20 62 20 108q-3 34 -12 64q-4 20 -6 28q-6 39 -33 70q-1 0 -2 1t-2 1q-20 17 -51 17q-20 0 -35 -5q-45 -8 -60 -45q-2 -2 -2 -6q-5 -20 6 -39q0 -4 -4 -8h-20q-123 4 -164 12q-4 1 -12.5 2.5 t-12.5 2.5q-8 12 -8 18q6 3 13 10q4 2 8 13l4 10q8 16 10 26q14 33 33 58l18 24q9 10 43 54q30 34 84 49q65 18 117 18h14q14 0 41 -1t39 -1h25q57 -20 90 -74q35 -59 47 -84q26 -48 29 -98v-35q1 -13 2 -38t2 -38q3 -96 -37 -190q-2 -5 -10 -24t-11 -29q-21 -42 4 -90 q1 -2 3.5 -6.5t3.5 -6.5q18 -36 20 -39q46 -83 64 -163q8 -24 8 -52v-12q0 -14 2 -22q3 -36 -4 -78.5t-15.5 -70t-25.5 -73.5q-28 -77 -119 -135q-43 -26 -107 -37q-34 -7 -88 -14q-10 -2 -30 -2q-52 0 -109 23q-9 4 -27.5 13t-27.5 13q-9 7 -27 14q-27 13 -35 33 q-53 94 -67 154q-6 21 -15 45q-1 2 -2 6t-2 6z" />
<glyph unicode="4" horiz-adv-x="954" d="M102 362v3q0 77 11 120q6 18 6 41q0 48 28 97q3 8 11 21.5t10 17.5q12 24 18 34q56 105 84 189q9 29 35 80q19 38 56 113.5t55 113.5q6 12 21.5 41.5t23.5 46.5q3 7 10 21.5t10 21.5l17 31q18 37 55 45l6 2q38 10 64 10h14q45 -20 59 -43q20 -77 17 -160v-86 q0 -8 -1 -24.5t-1 -24.5v-12v-33q-9 -46 -9 -88v-145q0 -115 -2 -172q0 -5 2 -11l3 -6l2 -2q0 -2 2.5 -5.5t3.5 -4.5l2 -2q13 -12 20 -14q18 -9 39 -9q19 0 37 6q14 7 18 11h7q6 2 14 2h2v-266q0 -3 -2 -3t-6 -2q-21 27 -58 27q-18 0 -36 -6q-5 -1 -12 -4t-9 -4q-1 -1 -3 -2 t-3 -2q-13 -6 -16 -19q-2 -2 -2 -4q-7 -21 -7 -24q-2 -20 -2 -62q0 -7 -1 -24t-1 -25v-4q-1 -10 -2 -29.5t-2 -28.5q-9 -45 25 -94l6 -6q0 -2 -1 -5t-1 -5h-51q-33 0 -104.5 1t-96.5 1l-6 12v6l6 7q22 25 22 55q7 126 0 205q-1 5 -4 13t-4 9l-4 4q-1 4 -12 15 q-49 22 -100 22q-27 0 -54 -6q-22 -3 -133 -8h-39q-21 0 -33 14q-4 12 -4 16zM350 686q-12 -42 2 -68q15 -27 60 -36q8 -2 24 -2q45 0 70 28q8 8 8 17q12 108 2 217q0 14 -16 24q-6 6 -19 6q-2 0 -6 -1t-6 -1q0 -2 -2 -2q-13 -4 -23 -14q-2 -2 -5 -7t-5 -7q-27 -35 -41 -58 q-34 -62 -43 -96z" />
<glyph unicode="5" horiz-adv-x="851" d="M102 256q3 10 9 20q60 23 88 29q53 12 94 29q7 5 24 8h2q7 0 7 -6q1 -4 2 -13.5t2 -13.5v-10q0 -6 6 -12q18 -27 61 -41q1 0 4.5 -1t4.5 -1h4q44 5 82 53h2q6 6 13.5 18t10.5 15q1 2 4 7t4 7q4 8 4 10q1 2 2.5 7.5t2.5 7.5q4 20 6 28q16 48 8 138q-2 10 -5 30t-5 29 q-6 24 -7 29q0 1 -1 3.5t-1 4.5q0 1 -3.5 6t-4.5 8q-1 2 -8 17.5t-12 23.5q-20 38 -58 68q-25 14 -49 14q-19 0 -35 -8q-18 -6 -32 -27q-22 -38 -25 -43l-6 -12q-10 -10 -23 -10q-1 0 -4.5 1t-5.5 1q-55 12 -61 14q-60 20 -82 55q-2 7 -2 52v10q5 85 8 104q0 3 1 9.5t1 9.5 q6 48 6 51v4q4 54 10 80q0 1 7 41v14v12q10 74 12 82q12 61 6 127q-3 22 -16 41q-1 3 -2 9.5t-2 9.5v4q1 2 4 6t4 6h49h57h58h59h29q61 0 90 -2q16 0 46 -1t44 -1q27 0 39 2q28 -14 73 0q1 0 2.5 -1t2.5 -1v-6l2 -2q0 -1 -1 -3t-1 -3l-7 -35q0 -44 -10 -109q-8 -55 -10 -92 q-11 -7 -21 -2q-27 24 -69 27h-19q-59 0 -137 -19q-79 -18 -104 -106q-3 -20 0 -33v-4q3 -17 18.5 -31t32.5 -14h6q4 0 8 2q9 0 29 4q32 8 47 8q54 0 119 -41q7 -5 35 -28l2 -2q4 -3 18 -17q66 -87 86 -176q15 -59 18 -136t-1 -138q-1 -23 -19 -109q-36 -137 -102 -233 q-27 -35 -45 -46l-9 -6q-43 -27 -45 -28q-54 -31 -100 -31q-4 0 -13.5 1t-13.5 1q-105 17 -157 53q-4 5 -12.5 15.5t-12.5 15.5q-66 77 -98 133q-1 3 -4 8t-4 6q-9 19 -11 25z" />
<glyph unicode="6" horiz-adv-x="870" d="M102 553v182q0 51 11 111q9 41 20 117q11 82 57 219q3 8 8.5 24.5t8.5 24.5q11 37 67 110q24 31 62 41q27 9 51 21q3 2 21 8h65q78 0 139 -55q8 -7 17.5 -16.5t21 -21.5t17.5 -18l2 -2q21 -24 45 -51l10 -10q0 -6 -4 -18q-1 -1 -6 -4.5t-8 -4.5q-10 -5 -11 -6 q-22 -14 -129 -71q-30 -3 -53 8q-14 37 -57 41q-2 0 -6.5 1t-6.5 1q-22 0 -38 -13h-3q-20 -16 -41 -49l-2 -4q-30 -46 -30 -92q0 -7 -1 -20t-1 -19v-72q0 -8 6 -26q1 -1 2 -3t2 -3q3 -12 14 -19q4 -2 13 -2q8 0 12 2l92 43q16 4 47 4t49 -2q56 -20 101 -51l8 -8 q1 -1 10.5 -14t15.5 -19q16 -20 23 -41l2 -4q5 -12 15.5 -37t15.5 -37q6 -15 10 -47q3 -49 -2 -221v-2q0 -7 -4 -27q-21 -79 -45 -159q-19 -61 -90 -156q-27 -37 -72 -53q-11 -4 -29 -8q-2 -1 -45 -17q-19 -8 -45 -8q-34 0 -82 25q-6 3 -51 28q-2 1 -10.5 6t-14.5 7 q-3 5 -8 8q-4 5 -14.5 15.5t-15.5 16.5q-91 91 -103 209q-1 5 -18 113q-1 4 -2 11t-2 10q-11 68 -11 104zM324 504q-19 -68 14 -164q13 -44 39 -70q30 -30 72 -30q14 0 38 8q51 25 72 71q31 60 31 117v82v17q0 59 -43 96q-20 15 -23 18l-8 6q-4 4 -10 7l-55 16q-1 0 -4.5 1 t-4.5 1q-2 0 -5 -1t-5 -1l-10 -4q-12 -4 -16 -6q-45 -16 -58 -58q-11 -31 -16 -51q-4 -20 -4 -29q0 -10 -4 -26z" />
<glyph unicode="7" horiz-adv-x="915" d="M104 1182v14q-3 80 2 143q0 9 5 54q4 20 4 26q11 11 30 8l2 -2q35 -14 68 -14h117h59h101q94 2 284 2q8 0 14 -0.5t9 -1.5t5 -1l3 -1l1 -3q2 -3 3.5 -10t1.5 -18v-133v-51q-3 -8 -33 -66q-2 -2 -6 -10q-36 -66 -94 -217q-61 -178 -115 -395q-43 -178 -98 -395 q-2 -10 -2 -31q0 -29 16 -49q0 -12 -6 -21q-5 -1 -16 -2t-17 -2q-25 -2 -71 -6h-101h-75q-2 1 -5.5 3t-5.5 3q-6 12 -6 14v9q36 38 53 100q1 4 21.5 83.5t28.5 121.5q2 9 5 29t5 30q2 22 10 56q22 120 49 198q3 7 10.5 28.5t12.5 31.5q17 40 20 45q4 13 23 55q48 117 78 172 q32 56 59 143q8 24 -2.5 44t-36.5 30q-2 0 -5 1t-5 1h-84h-103h-2q-14 0 -22 -4q-23 -8 -74 -8h-18h-15q-5 0 -13.5 -1t-12.5 -1h-4q-4 -2 -9 -2q-14 -7 -22 -15q-12 6 -21 15z" />
<glyph unicode="8" horiz-adv-x="864" d="M106 444q1 2 1.5 4t1.5 5.5t2 5.5q4 16 4 33q0 35 22 92l4 10q15 49 54 88q8 8 12 10q33 33 43 60q3 12 -2 20v4q-10 20 -15 25q-31 39 -51 86q-30 61 -32 108v2q0 4 -5 29q-10 40 0 94q5 44 29 94q21 38 45 78q50 80 121 109l16 8q2 0 4 2q18 2 62 2q53 0 78 -2 q31 -3 57 -12q25 -8 35 -10q12 -3 24 -15q104 -79 113 -215q2 -8 2 -29v-18q3 -103 -37 -190q-2 -4 -20 -52q-24 -55 -35 -77q-16 -28 -6 -66q1 -2 2 -5t2 -5l6 -6q5 -11 16 -25q43 -56 76 -139q8 -16 8 -27l2 -6q19 -110 15 -168q-8 -68 -19 -110q-8 -39 -32 -70 q-5 -4 -25 -29q-24 -29 -29 -33q-38 -38 -71 -61q-8 -5 -25.5 -13t-21.5 -10q-15 -5 -17 -6q-4 0 -10.5 -1t-9.5 -1q-31 0 -58 -6q-10 -4 -32 -4q-24 0 -78 12l-6 2q-49 13 -84 45q-13 13 -41 33q-36 25 -54 72q-3 9 -9 27.5t-9 27.5l-8 23q-1 4 -2 11t-2 11q-1 10 -4 32 t-4 32q-9 62 -3 114zM311 479q-6 -75 2 -149q0 -9 2 -13q1 -1 4 -4.5t5 -5.5q8 -21 18 -33q24 -34 68 -34q19 0 32 8q61 23 86 84q20 56 23 106q0 49 -23 131q-12 51 -57 82q-19 13 -39 13q-26 0 -47 -21q-65 -74 -74 -164zM328 930q3 -40 34 -76q13 -17 35 -23q8 -2 27 -2 q55 0 80 43q6 9 20 37q4 13 8 17q3 6 3 12q0 4 1 12t1 11v53q0 53 -35 125q-19 39 -58 45q-10 2 -24 2q-55 0 -76 -56q0 -1 -1 -3.5t-1 -4.5q-8 -17 -12 -45q-10 -74 -2 -147z" />
<glyph unicode="9" horiz-adv-x="874" d="M104 924q-7 123 66 311q29 81 109 129q20 12 30 20q2 1 6.5 3.5t6.5 3.5l2 2l24 6q35 14 72 14q60 0 133 -43q8 -4 20 -16q9 -6 21 -23q4 -4 13 -12.5t14 -13.5q44 -44 67 -115q24 -70 49 -199q19 -92 21 -143v-6q16 -64 12 -174v-52v-2q0 -67 -10 -96q-4 -10 -4 -31v-2 q-4 -79 -49 -227q-38 -112 -123 -188q-60 -54 -142 -68q-6 -2 -20 -2q-17 0 -27 2q-46 8 -112 45q-6 3 -16 12.5t-13 12.5l-4 4q-41 45 -57 80q-15 34 -39 55q-7 25 -2 41q102 50 122 59l39 19q21 9 45 18q5 0 13 -4q1 -2 2 -7t2 -7q9 -20 22 -37q14 -19 43 -19q11 0 25 7 q37 18 53 49q6 9 19 35q2 3 5 9t5 9q12 30 16 70q6 40 6 41q4 11 4 47q-2 4 -2 12q0 19 -16.5 33t-34.5 14h-6q-4 0 -6 -2q-15 0 -25 -4q-11 -3 -22 -10q-8 -4 -10 -4q-3 -2 -21 -11l-8 -4q-36 -4 -57 -4q-6 0 -17.5 1t-17.5 1h-13q-9 0 -18.5 2t-22.5 6.5t-20 6.5l-18 6 q-8 2 -19 14q-44 35 -67 80q-46 88 -46 170v22q0 36 -2 54zM289 964.5q-1 -63.5 24 -147.5q5 -9 6 -10v-2q1 -1 4 -3.5t5 -4.5q43 -37 82 -37q45 0 88 43q62 59 59 149q-7 73 -16 113q-6 20 -33 82l-2 6q-17 38 -62 57q-4 2 -12 2h-4q-81 -12 -109 -94q-29 -90 -30 -153.5z " />
<glyph unicode=":" horiz-adv-x="378" d="M102 197v2q4 16 4 24q3 14 21 35q22 25 55 25h2h6q17 0 25 -2q44 -6 53 -52v-34v-13q-1 -1 -2 -3t-2 -3q-4 -10 -16 -26q-17 -29 -51 -29h-9q-49 3 -73 41q-2 3 -6 12t-5 12q0 7 -2 11zM115 897q9 71 59 100q3 0 8 1t8 1q24 0 46 -14q29 -19 34 -53q8 -32 2 -68 q-19 -27 -47 -41q-6 -2 -18 -2q-15 0 -27 6q-31 13 -45 29q-9 8 -16 31q0 2 -4 10z" />
<glyph unicode=";" horiz-adv-x="423" d="M102 63q0 9 11 31t14 27q62 118 94 158q2 0 7 1t8 1t10.5 -2t11.5 -3q4 -4 8 -4q5 -4 15.5 -11t15.5 -11q3 -2 20 -25q4 -4 0 -12q-6 -17 -16 -31q-15 -22 -43 -63.5t-41 -61.5q-19 -28 -45 -37q-27 5 -61 29q-8 8 -9 14zM162 915q1 2 2 7.5t2 7.5q11 46 12 47 q17 41 66 41q14 0 30 -8q39 -26 45 -76q6 -35 -12 -62q-22 -36 -67 -36q-15 0 -31 8q-24 14 -29 28q-2 4 -14 33q-1 2 -2 5t-2 5z" />
<glyph unicode="&#x3c;" horiz-adv-x="688" d="M102 705q0 1 9 10q3 2 9 5t9 5v2q105 59 229 111q65 28 107 51q7 3 10 10q2 4 6 8q4 8 4 11q12 8 19 6l2 -2q12 -26 34 -79.5t33 -80.5l7 -14q-2 -3 -2 -5h-3v-2q-1 0 -2 -1t-2 -1h-14q-10 0 -14 -2q-7 -3 -21 -8.5t-20 -7.5q-52 -19 -82 -37q-14 -10 -14 -25q0 -6 4 -14 q0 -1 1 -2t1 -2q4 -13 14 -20q77 -59 154 -64q4 -8 4 -14q2 -4 2 -11q-38 -81 -86 -149q-2 -5 -11 -14q-10 0 -34 8q-23 23 -64 41q-111 49 -135 61q-21 10 -67.5 32t-67.5 32q-8 4 -15 16v33q-4 74 -4 113z" />
<glyph unicode="=" horiz-adv-x="880" d="M102 887q1 1 3.5 2t3.5 2q4 -2 14 -2q6 0 18 4q8 2 29 2h4q357 4 492 6h2q12 0 18 -2h21q12 0 18 2q15 0 43 4h2q4 -4 4 -12q2 -39 2 -113q-1 -1 -2 -3t-2 -3t-2 -3t-2 -3v-2q-4 0 -4 -4q-8 8 -21 8q-24 12 -41 14q-2 2 -6 2h-2h-18h-19q-79 0 -131 -14q-10 -2 -34 -2 h-19q-6 -2 -20 -2q-34 0 -52 -4q-27 -6 -77 -6h-35q-15 0 -21 2q-13 0 -45 4q-4 1 -13 2t-13 2h-13q-19 0 -34 -6q-5 0 -17 -4q-2 -1 -7 -3t-7 -3l-4 4v2q-2 22 -6.5 65t-6.5 64zM119 645q-6 -68 6 -133q41 10 74 10h26h8q20 -2 68 -2q63 0 96 2h15q27 0 37 2q32 9 108 13 q15 0 23 2h38q46 0 66 4q28 4 49 4q15 0 43 -4q3 22 0 47v31q0 26 -10 59h-2q-2 0 -32 -2t-46 -4q-64 -12 -141 -12q-17 2 -23 2q-22 0 -68.5 -1t-70.5 -1h-2q-17 0 -57 -5q-12 -3 -78 -8h-2q-17 0 -50.5 -1t-48.5 -1q-18 0 -26 -2z" />
<glyph unicode="&#x3e;" horiz-adv-x="688" d="M102 532q0 7 2 11q0 4 5 14q76 4 153 64q10 7 14 20q0 1 1.5 2t1.5 2q4 8 4 14q0 14 -15 25q-30 18 -82 37q-6 2 -20 7.5t-21 8.5q-4 2 -14 2h-14q-1 0 -2 1t-2 1v2h-2l-2 5l6 14q12 27 34 80.5t33 79.5l2 2q7 2 19 -6q0 -3 4 -11q4 -4 6 -8q3 -7 10 -10q42 -23 107 -51 q124 -52 229 -111v-2q3 -2 9.5 -5t9.5 -5q8 -8 8 -10q0 -39 -4 -113v-33q-7 -12 -15 -16q-21 -10 -67.5 -32t-67.5 -32q-24 -12 -135 -61q-41 -18 -64 -41q-24 -8 -34 -8q-9 9 -11 14q-48 68 -86 149z" />
<glyph unicode="?" horiz-adv-x="905" d="M102 1147q0 1 3 8t4 12q2 14 10 41q0 2 1 6.5t1 6.5q21 82 110 133q66 41 179 59q30 6 59 6q38 0 86 -10q1 0 4 -1t4 -1q36 -6 37 -6q15 -3 33 -15q72 -44 96 -83q6 -9 12 -21q10 -10 15 -20q27 -53 35 -101q12 -65 12 -119q0 -24 -17 -94q0 -2 -1 -6t-1 -6 q-9 -39 -36 -66q-55 -51 -72 -69l-25 -23l-22 -22q-32 -28 -51 -47q-51 -54 -70 -119v-6q-2 -16 6 -37q0 -7 -4 -23h-4q-28 -1 -83 -2t-83 -2h-4q-3 2 -10 12l-2 5l6 12l4 6q0 1 1 4t1 4q4 20 4 29q3 23 10 53q35 127 119 205q12 12 18 16l25 25q16 14 47 45q3 3 9.5 9 t9.5 9q1 1 3 4.5t3 4.5l20 47q4 4 4 10q6 77 -2 131q0 6 -2 10l-20 41l-4 8q-35 35 -76 41q-24 4 -33 4q-48 0 -94 -32q-1 0 -2 -1t-2 -1q-21 -21 -33 -66v-16l2 -2q0 -3 -1 -8.5t-1 -8.5q-9 0 -28 -1t-29 -1h-19h-14h-21h-20q-27 0 -39 -2q-10 -1 -32.5 -2t-33.5 -2 q-2 12 -2 35zM309 137q-3 -34 4 -51q18 -63 76 -78q2 -1 6.5 -2t7.5 -2h3q1 0 3.5 1t4.5 1q6 2 18.5 6t18.5 6q31 12 43 39q1 3 3 8.5t3 8.5l2 2v76l-4 8q-16 40 -27 51q-26 20 -63 20q-9 0 -33 -4q-46 -39 -66 -90z" />
<glyph unicode="@" horiz-adv-x="1265" d="M104 604v131v33q0 3 1 10t1 10q3 3 3 9q1 3 2 9t2 9q6 42 6 43q9 111 67 238q18 39 64 100l4 6q51 68 121 129q25 20 63 39q2 1 6.5 2t6.5 2t5 3t5 3q65 26 87 31.5t56 5.5h23h24h21h26h23h18q45 0 119 -18l10 -2q49 -12 97 -54q96 -83 151 -229q32 -87 37 -151 q0 -22 4 -54q6 -35 6 -69q-6 -101 -33 -178q-42 -100 -86 -162q-37 -52 -98 -76q-49 -21 -110 -21h-31q-1 0 -3 1.5t-3 1.5q-37 18 -80 18q-27 0 -72 -10q-32 -11 -78 -11q-10 0 -30.5 1.5t-30.5 1.5q-59 6 -86 55q-39 67 -64 145q-4 20 -4 33q-2 14 -2 41q0 96 2 115 q12 141 82 254q21 35 56 47q14 7 63 24l12 4t15 4h26q10 2 33 2q47 0 82 -12q2 0 5 -1t5 -1q1 0 4 1t4 1q2 1 7 2t8 2q9 6 20 6q17 5 37 5q25 0 51 -13q1 -1 4.5 -2t5.5 -2q0 -1 5 -6q-12 -114 -15 -231v-23q-3 -49 -8 -80q-12 -62 -4 -160v-4q0 -10 8 -18l21 -19 q8 -8 18 -8q6 0 8 2q45 9 60 62q41 148 39 254q-3 127 -58 243q-6 12 -14 17q-8 16 -16 20q-4 8 -7 11q-36 49 -92 69q-85 29 -141 29h-16q-23 -2 -68 -2q-6 0 -17 -1t-16 -1q-6 0 -10 -2q-78 -35 -131 -94q-4 -4 -9 -8.5t-11 -11t-9 -9.5l-6 -4q-106 -106 -121 -264 q-15 -138 0 -289q12 -153 92 -279q3 -5 31 -45q27 -36 74 -59q77 -35 104 -41q2 -2 8 -2h29h88q37 0 68 10q65 21 145 80q13 9 39 31q10 10 16 14q7 7 7 8q1 2 4 6t4 6q13 10 28 13q34 -34 78 -97q0 -23 -10 -36l-2 -2q-55 -25 -86 -56q-65 -63 -176 -96q-132 -37 -213 -39 h-10q-56 0 -154 25q-8 0 -20 4l-5 2q-59 30 -137 108q-56 53 -80 129q-42 123 -67 246q0 7 -4 23q-9 47 -11 63zM483 672q0 -2 1 -5t1 -5q1 -2 3.5 -7.5t3.5 -7.5q18 -41 34 -55q1 -1 4.5 -3t4.5 -3q29 -11 51 -11q28 0 57 13q59 22 62 82q1 12 4 38t4 40q1 4 2 13t2 13 q12 107 0 191q0 13 -8 18q-39 39 -91 39h-6q-56 -3 -86 -49q-15 -21 -24 -51q-15 -58 -17 -70q-12 -68 -2 -180z" />
<glyph unicode="A" horiz-adv-x="1253" d="M102 31l4 8q44 30 62 86l2 4q2 7 14 44t17 56q15 57 41 142q36 127 53 198q9 37 16 52q4 16 8 24q2 11 11 33q4 13 12 38.5t12 39.5q12 30 19 73q2 6 5 20.5t5 20.5q24 94 39 174q6 34 18 72q18 64 21 90q2 12 7 35.5t7 36.5q4 11 8 33q3 6 0 12q0 4 -2 6q0 2 -4 14 q-6 18 -20 29q0 4 -4 4q5 16 6 17l6 6h6q48 2 111 10q1 0 116 6h23q21 0 35 -20q20 -23 28 -54q5 -19 14 -54t11 -42q7 -30 21.5 -89.5t21.5 -88.5q2 -8 5 -23.5t5 -23.5q31 -135 47 -191q28 -86 37 -141q3 -16 23 -88q19 -74 22 -88v-6q16 -45 31 -121q2 -10 6 -30.5 t6 -30.5q3 -14 9.5 -41.5t9.5 -40.5q1 -4 3 -12.5t3 -12.5q9 -28 12 -53q5 -20 16 -51q1 -2 3.5 -7.5t3.5 -7.5q0 -7 6 -10q25 -29 41 -41l4 -12q1 -2 2 -6t2 -6q0 2 2 -7q0 -6 -2 -10l-2 -2h-4h-6h-52h-51h-108q-66 4 -95 8q-6 4 -10 15q0 1 1 3t1 3q22 25 22 59 q0 16 -5 35q-9 39 -31 59q-3 5 -10 9h-2q-12 6 -23 6q-10 0 -30.5 -1t-32.5 -1q-13 0 -40 1t-40 1h-80q-59 0 -86 -2q-11 0 -23 -6q0 -5 -4 -5q-10 -10 -14 -20q-2 -11 -7.5 -31.5t-6.5 -23.5l-4 -15v-8q0 -22 18 -49v-6q2 -2 2 -6q-4 -4 -4 -9l-4 -4h-2h-25h-4 q-176 0 -266 2h-8q-1 1 -4.5 3.5t-4.5 3.5q0 1 -1 3t-1 3zM518 498q0 -10 10 -17l15 -14q9 -6 18 -6q31 -2 78 -2q51 0 74 2q42 3 55 45q0 1 1 3t1 3v18l-10 45q-9 38 -26.5 115t-26.5 115q-3 15 -17 57q-4 4 -4 10q-2 4 -5.5 9.5t-4.5 7.5l-2 2q-13 20 -37 20 q-17 0 -31 -14q-44 -50 -53 -121q-4 -25 -14 -74t-11 -57q-1 -5 -3 -15.5t-3 -15.5q-8 -40 -8 -73q0 -23 4 -43z" />
<glyph unicode="B" horiz-adv-x="1077" d="M102 31l2 2q0 1 1 3t1 3q43 34 60 74q2 2 2 8t2 10v25q0 14 1 42t1 42v284q0 160 -2 238v137q-2 96 -2 289v125q0 1 -1 4t-1 4q-17 51 -55 76q-4 4 -7 4q0 2 -1 7t-1 7v6l2 2q1 1 3 2q1 0 1.5 0.5t0.5 1.5h163l47 -2q31 -8 93 -8h22h23h14q10 0 30.5 -1t30.5 -1 q26 0 82 -1t82 -1q29 0 64 -14q3 -1 9 -2t9 -2l8 -4q6 -6 15 -9q12 -6 20 -14q7 -9 43 -39q29 -20 47 -43q27 -46 37 -74q2 -6 5 -17t5 -15q5 -15 5 -17v-26q0 -53 2 -80q0 -65 -37 -178q-9 -34 -41 -66q-3 -3 -9.5 -8t-9.5 -8q-25 -22 -45 -47q-14 -21 2 -37q2 -3 7.5 -8.5 t7.5 -8.5q20 -24 32 -34q50 -44 78 -113q1 -4 4 -12.5t4 -12.5q3 -3 3 -6l14 -143q0 -2 -1 -5t-1 -5q-6 -42 -6 -50q-4 -53 -52 -151q-3 -3 -8 -9.5t-8 -9.5q-28 -36 -45 -53q-6 -6 -31 -26q-2 -2 -6 -5.5t-6 -5.5q-55 -22 -109 -22h-8h-8q-23 0 -33 -4q-40 -11 -90 -11 q-10 -2 -37 -2q-6 0 -8 -2q-25 0 -37 -4q-46 -8 -75 -8q-39 0 -80 8h-27q-19 0 -31 -2q-50 -6 -112 -6h-41q-13 13 -13 29zM395 547q4 -126 4 -207q3 -41 17 -84q6 -8 14 -14l2 -2q8 -8 25 -11q35 0 51 -2q16 0 46 -1t46 -1q13 0 36 1t34 1q5 2 16 9q67 55 70 143q1 16 1 33 q0 39 -5 84q0 2 -1 4.5t-1 3.5q-1 2 -4.5 7t-4.5 7q-6 15 -16 35q-28 63 -92 80q-2 2 -8 2q-25 2 -80 2q-15 0 -40.5 -1t-37.5 -1q-12 -4 -18 -8q-1 -1 -3 -2.5t-3.5 -3t-2.5 -3.5q-16 -12 -22 -20q-8 -8 -12 -16l-3 -2q-1 -2 -2 -5.5t-2 -5.5v-4q-4 -8 -4 -18zM397 903 q0 -17 17 -24q1 -1 3 -2.5t3 -2.5q14 -10 29 -12q35 -2 98 -2q65 0 96 4q15 0 21 6h4q4 4 6 4q36 28 45 74q1 2 2 8t2 9q3 8 8 32q4 38 2 58q-9 69 -61 96q-35 20 -41 23q-3 1 -8.5 4t-8.5 4q-2 2 -10 2q-32 4 -47 4q-63 0 -129 -29q-11 -8 -14 -18q0 -1 -1 -5t-1 -6 q-9 -17 -11 -34q-5 -74 -5 -139q0 -28 1 -54z" />
<glyph unicode="C" horiz-adv-x="1044" d="M106 567q-3 41 -3 89q0 84 8 192q2 34 18 100q8 26 21 64q17 56 18 63q17 55 57 133l4 6q22 48 78 91q70 51 123 73q82 39 176 39q19 0 51 -4q57 -5 103 -29q39 -19 82 -65q28 -32 71 -105q1 -4 4.5 -12t4.5 -12q4 -18 -7 -29q-12 -12 -32 -28q-19 -14 -27 -19l-12 -6 l-68 -16q-13 3 -24 14q-44 66 -129 94q-3 2 -5 2q-24 4 -40 4q-26 0 -50 -6h-6q-2 -2 -6 -2l-12 -6q-80 -41 -121 -127q-5 -8 -13 -25.5t-10 -21.5q-6 -10 -15.5 -30.5t-12.5 -26.5q-31 -71 -33 -123q0 -15 -2 -19q-12 -47 -12 -94q0 -42 10 -84q4 -16 4 -27v-8 q0 -33 14 -92q2 -6 6 -22q23 -96 78 -177q38 -49 68 -67q4 -4 16 -12q4 -3 15 -9.5t18 -11t18 -10t21 -8.5h6q44 -7 82 -7q28 0 55 3q2 0 5.5 1t5.5 1q41 20 92 67q34 28 35 29h10q8 -4 12 -8q7 -5 22.5 -15.5t22.5 -15.5q39 -31 41 -74q0 -5 -12 -20q-102 -117 -254 -140 q-17 -4 -51 -8l-23 -4q-44 10 -115 10h-12q-68 3 -123 43l-10 9q-24 18 -29 22q-1 1 -4 2t-4 2t-4 3.5t-5 4.5t-3 4q-4 5 -12.5 14.5t-12.5 14.5q-29 37 -43.5 56.5t-33 52t-27.5 61.5q-1 4 -3 11.5t-3 11.5q-4 16 -6 26q-23 75 -37 150q-1 7 -4.5 28.5t-4.5 34.5z" />
<glyph unicode="D" horiz-adv-x="1150" d="M109 1384v2q-10 14 0 27h4h41h8h92q39 -2 117 -2h16q55 0 92 2h21q37 2 112 2h56q117 -41 229 -155q9 -9 25 -37l4 -6q35 -61 59 -148q3 -10 14 -42.5t17 -51.5l14 -43q0 -7 1 -22t1 -23q4 -71 12 -105q0 -8 1.5 -23t1.5 -22q1 -23 1 -44q0 -67 -10 -107q-4 -14 -4 -41 q0 -60 -26 -166q-1 -5 -3.5 -16.5t-3.5 -16.5q-5 -24 -24 -61q-27 -44 -53 -82q-26 -39 -70 -62q-27 -13 -68 -45q-41 -29 -94 -45q-85 -26 -114 -31t-121 -6h-2q-101 0 -158 -2q-25 0 -37 -2q-66 -8 -110 -8h-3q-2 2 -5 6t-5 6v9q0 2 1 6t1 6v2q11 11 27 39q0 4 2 6 q3 22 3 48q0 15 -1 32v22v146q-2 35 -2 106v84q0 72 -2 109v26q0 81 -6 109l-2 352q10 46 10 113v22v10q0 52 -27 105q-11 11 -14 12zM397 324q0 -13 6 -19l15 -18q8 -7 18 -11q10 0 28.5 -1t27.5 -1q77 0 139 29q2 0 4 2q43 26 90 86q68 83 80 199q4 34 3.5 74.5t-3.5 87.5 v18q-1 5 -2 15.5t-2 15.5q-13 53 -21.5 83.5t-27 76t-41.5 81.5q-37 60 -76 86l-10 5q-27 6 -56 6h-22q-8 -2 -21 -2h-6q-21 0 -31 -2h-4q-19 -1 -35 -18t-18 -36q-2 -10 -2 -28q-1 -7 -2 -21.5t-2 -21.5q-10 -37 -10 -113q0 -12 -2 -16q0 -105 -2 -154q0 -65 -2 -98v-13 q0 -29 -2 -41q-11 -69 -11 -188v-63z" />
<glyph unicode="E" horiz-adv-x="999" d="M102 39q2 4 2 8q33 39 33 92v17q0 8 1 25.5t1 25.5v225v309v19q-1 14 -1 27q0 38 7 63q1 4 2 11t1.5 11.5t1.5 8.5v10q3 79 3 172q0 55 -1 115v98q0 54 -27 90q0 2 -2 2q-6 16 0 31q0 4 4 4v2q6 0 17 1t16 1q12 0 28 -4h9h20h29q5 0 15 -1t15 -1q52 0 101 8q31 6 98 6h12 h242h111q16 0 20 -2q4 -12 4 -22v-240q-4 -8 -14 -18q0 -3 -4 -7l-4 -2q-4 0 -8 2h-5q-2 2 -6 2q-1 0 -8.5 4t-13.5 5q-7 1 -21.5 3t-21.5 3q-23 0 -47 6q-28 4 -47 4q-27 0 -48 -6q-34 -6 -67 -6h-19q-40 -3 -75 -6q-25 -1 -42.5 -19t-19.5 -41q0 -9 -0.5 -26.5t-0.5 -32 t1 -27.5q2 -35 21.5 -54.5t54.5 -19.5h18q16 -2 48 -2q33 0 47 2q9 0 18 9l6 6q8 4 10 6t5 4.5t4 3.5q13 0 18 -8v-8q2 -14 2 -43q0 -33 2 -49v-27q5 -86 10 -111q0 -4 1 -11t1 -11q-1 -2 -5 -12t-7 -15q0 -2 -4 -6h-12q-18 12 -41 12h-21q-86 0 -129 -4q-10 0 -18 -8 l-14 -12q-9 -13 -9 -21q-6 -73 -6 -151q0 -64 4 -131q0 -5 4 -13l19 -28q1 -1 3 -4t3 -4q4 -4 4 -5q13 -6 19 -8q5 -1 14 -4t14 -4q68 -14 92 -14q15 0 42 -1t42 -1h33h6q44 0 62 -6q15 -5 34 -5q41 0 80 25q9 0 17 -4h4q2 -5 3.5 -14t2.5 -11v-8q0 -35 1 -100t1 -96l-2 -5 v-2h-4q-2 0 -6 -1t-6 -1l-99 -6h-4q-29 -4 -86 -4q-61 0 -92 4h-10q-12 1 -36.5 3t-37.5 3h-266h-80q-29 0 -43 -2q-15 6 -21 21q0 1 -1 3t-1 3z" />
<glyph unicode="F" horiz-adv-x="970" d="M104 45q10 7 15 14q4 8 4 15q0 2 1 6t1 6q0 4 1 17t1 20q0 53 1 159.5t1 159.5q2 115 2 349q2 8 2 24q-1 18 -1 34q0 40 7 69q2 16 2 45v12v299q0 33 -4 49q-9 37 -33 55q0 16 15 27q117 10 256 10h12h105h170h61h2q41 0 115 -16q10 -5 16 -15q4 -16 4 -51v-30v-11 q0 -2 2 -34.5t4 -49.5q2 -4 2 -16q-4 -12 -8 -18l-4 -9q-2 0 -2 -2l-4 2q-1 0 -3 1t-3 1q-17 13 -31 15h-2q-12 4 -18 4h-2q-20 -2 -62 -2q-58 0 -168 4q-12 2 -37 2h-12q-29 0 -41 -2q-15 -2 -29 -12l-2 -2q-14 -10 -14 -23q-14 -89 -16 -131q-1 -19 -2 -45q0 -31 2 -72 q0 -2 4 -10q13 -36 63 -41q50 -6 86 -6q7 0 21 1t20 1t10 4q10 4 25 18q2 2 8 2q1 -1 3 -4t3 -4v-55q2 -14 2 -39q0 -78 2 -117v-14q-4 -8 -4 -12q-3 -6 -8 -11h-4q-1 1 -3 3.5t-3 3.5q-4 6 -17 10q-32 4 -51 4q-6 0 -19.5 -1t-19.5 -1q-20 0 -30 -2q-28 0 -70 -17 q-4 0 -12 -4q-14 -3 -17 -16l-2 -6q-14 -34 -17.5 -49.5t-4.5 -51.5l-3 -96l-3 -96v-25v-20q0 -46 -9 -90q-4 -19 -4 -41q0 -16 2 -33q-2 -5 2 -14q0 -6 5 -11q10 -16 20 -24q0 -1 1 -3t1 -3v-8q-5 -9 -8 -11h-70h-18q-119 0 -176 2q-14 11 -11 29z" />
<glyph unicode="G" horiz-adv-x="1073" d="M106 604v31q-2 43 -2 81q0 75 9 128q6 24 6 47q0 78 16 141v8q0 14 8 50q11 38 11 45q18 35 30 56.5t32 51t43 53t50 41.5q84 58 197 76q34 6 72 6q28 0 94 -8q24 -4 80 -16q66 -14 108 -49q26 -20 35 -27q31 -19 37 -72v-12q0 -82 20 -176q5 -10 9 -12v-3q4 -20 4 -22 q-1 -1 -2 -3t-2 -3q-13 0 -41 -4q-8 -1 -25 -2t-25 -2q-33 -2 -90 -2h-4q-2 0 -5 1t-5 1q-4 2 -6 2l-6 4q-5 3 -9 4q-1 1 -3 4t-3 4v6q17 27 17 55q1 6 1 12q0 28 -13 55q-14 32 -39 50q-5 3 -15.5 9.5t-15.5 9.5l-12 8q-8 4 -13 4q-23 4 -69 4q-22 0 -76 -4q-2 0 -10 -4 q-113 -62 -144 -191q-4 -12 -4 -20q-35 -136 -35 -217q0 -13 -2 -19q-13 -52 -13 -125q0 -35 3 -75q11 -149 78 -267q23 -39 61 -57q1 0 3 -1t3 -1q1 -1 19 -10q7 -2 20.5 -6t20.5 -6q10 -5 16 -7h8h23q58 0 94 11q65 17 103 73q6 6 6 13q3 30 3 64t-3 73q-1 18 -15 32 t-32 17q-28 4 -45 4q-15 0 -39 -4q-13 0 -29 -8q-5 0 -21 -4l-2 -2q-2 0 -4 -2q-8 12 -12 20v12q0 7 -1 21t-1 20v13q0 17 -4 53q0 13 4 37q0 1 1 3t1 3q2 6 10 18q0 4 2 4l2 2h2q3 -1 8 -2t7 -2h12h8q65 15 191 15q53 0 80 2h28q40 0 60 -2q8 -10 4 -37q-2 -2 -5.5 -5 t-5.5 -5q-6 -9 -6 -19q0 -14 -2 -20v-47q-2 -70 -2 -211v-174v-5q0 -59 -8 -106q-7 -24 2 -53q3 -13 -6 -27q-25 -2 -76 -2q-59 0 -90 2q-1 0 -4 1t-4 1l-2 2q-11 0 -17 15v6q-7 35 -28 45q-4 2 -13 2h-10q-12 -6 -39 -15q-14 -5 -43.5 -15t-44.5 -15q-37 -13 -69 -13h-11 q-24 2 -68.5 12t-64.5 19q-39 15 -73 49q-9 9 -13 15q-13 11 -30 32q-53 61 -66 113q-9 27 -18 51q-14 34 -19 58q-12 46 -12 67v12q0 92 -15 158z" />
<glyph unicode="H" horiz-adv-x="1075" d="M102 6v4q0 9 2 17q2 2 2 8q6 6 9 12q4 4 4 10q0 7 2 9q0 4 1 13.5t1 14.5v4q1 4 3 13.5t3 13.5q1 9 2 27t2 26q4 45 4 135v25q2 88 2 264q-1 0 -1 106v59q0 47 1 48v86q0 15 1 48t1 50q-1 52 -2 157.5t-2 156.5v4q0 10 -4 22q0 7 -2 11q0 9 -10 16l-19 16q0 11 2 15 q90 4 127 4q41 0 119 -4h8q0 -1 1 -2t1 -2q-4 -12 -4 -17q-4 -8 -4 -12q-7 -10 -12 -23q-2 -2 -2 -6v-4q-4 -8 -4 -22v-31q0 -59 4 -90q8 -49 8 -113q0 -27 2 -41v-41q0 -7 1 -21.5t1 -21.5q1 -23 19 -43t41 -26h4q4 -2 18 -2h242q10 0 18 4h4q13 3 25.5 15t15.5 26v2 q2 6 2 18q2 135 2 393q0 7 -2 13v8q-3 12 -12 18l-6 6q0 1 -1 3.5t-1 3.5q0 4 2 6q2 4 4 6l4 4q85 10 168 10h66q4 -4 8 -4q2 -8 2 -22q-3 -8 -8 -27q-3 -12 -9 -21q-4 -12 -2 -18q0 -11 4 -23q0 -4 7 -43v-47v-18v-88v-404v-12q0 -69 -9 -106q-5 -24 -2 -52v-14 q-4 -287 -6 -410q0 -29 2 -43q0 -22 13 -38q0 -5 2 -7v-14q0 -2 -2 -4h-213h-31q-9 6 -12 20q15 15 28 60q2 8 2 20v2v33q1 73 2 222.5t2 222.5q0 5 -1 15t-1 15q-2 2 -2 6q-1 17 -15 31t-30 17l-2 2q-12 4 -20 4h-117h-109q-38 0 -71 -33q-23 -26 -23 -47q-4 -58 -4 -70 v-149v-119v-10q0 -61 -8 -90q-2 -8 -2 -50q0 -3 1 -9.5t1 -10.5q0 -10 4 -16q5 -9 8 -11q17 -25 17 -37q0 -2 -3 -4t-8 -5t-8 -5h-33h-4q-68 -2 -205 -2z" />
<glyph unicode="I" horiz-adv-x="460" d="M104 16v9q21 27 23 55q2 20 2 61q0 53 -2 80v127q0 80 1 240t1 239q2 88 2 265q2 57 2 172v30q0 27 -2 41q-3 38 -25 66q-2 0 -2 4q-6 18 9 25h14q23 0 69 1t68 1q14 0 37.5 -1t34.5 -1q2 0 6 -1.5t6 -1.5t10 -4v-6q0 -10 -4 -20v-2q-9 -14 -12 -31q-2 -14 -2 -39v-8 q0 -30 -1 -93.5t-1 -95.5q0 -137 -4 -411q0 -23 -4 -55q-5 -39 -5 -70.5t5 -54.5q6 -31 6 -95q2 -57 2 -172v-161v-41q2 -8 2 -25q0 -8 8 -20q0 -9 -2 -15q0 -2 -1 -4.5t-1 -3.5h-209h-2q-16 8 -22 12z" />
<glyph unicode="J" horiz-adv-x="645" d="M102 31v4q0 27 1 80t1 80v20q2 4 2 12q2 2 5.5 6.5t5.5 6.5q1 1 3 2t3 2h16q9 0 33 -1t40.5 -0.5t31.5 3.5q50 10 69 80l6 598v168v159v70q0 1 -1 3.5t-1 4.5q-15 50 -45 80q-2 4 -2 12l1 1q2 4 3 5q2 0 2 3h238h16q9 -4 11 -9q2 -2 2 -4q-18 -18 -21 -22q-2 -2 -4 -7 l-2 -6v-4q-4 -16 -4 -28v-76v-66q2 -203 2 -403.5t-2 -398.5v-62v-47q-3 -90 -35 -168q-44 -104 -160 -125h-18h-16q-13 0 -37 4q-7 1 -22.5 3t-22.5 3q-18 2 -51 2h-33q-10 5 -15 15z" />
<glyph unicode="K" horiz-adv-x="1171" d="M104 1397q-2 9 9 20q23 0 68.5 1t68.5 1q22 0 67.5 -1t67.5 -1v-2q2 -10 2 -12q-30 -30 -33 -74v-43q0 -48 1 -143t1 -142q0 -4 1 -10.5t1 -9.5v-6q0 -6 9 -19l2 -2q3 -6 16 -16q12 -4 21 -4q15 0 34 14q11 11 15 17q1 1 4 3t4 3q16 21 20 28q5 7 15.5 21.5t15.5 21.5 q105 155 141 228q3 6 9.5 17.5t9.5 17.5l16 32q8 13 2 29v2q0 4 -4 12q0 11 2 15q0 6 4 6q18 2 54 2q41 0 122.5 -1t122.5 -1h11h22q2 -2 -2 -10q0 -5 -4 -13q-4 -2 -8 -6q-13 -9 -17 -10l-10 -10q-2 -3 -5 -10.5t-5 -10.5q-6 -9 -27 -45q-32 -63 -67 -110q-27 -37 -35 -54 q-49 -98 -127 -182q-6 -6 -6 -12q-8 -23 -8 -45q0 -34 18 -68q40 -73 76 -180q64 -176 71 -193q4 -9 11.5 -28.5t11.5 -28.5q13 -36 20 -49q24 -43 41 -96q24 -77 80 -174l3 -4q3 -4 5 -5l27 -18q0 -14 -12 -23h-99q-57 0 -96 -8q-38 -6 -84 -6q-7 0 -20 1t-19 1q-9 8 -6 16 q19 19 27 46v12q-15 78 -58 168q-45 102 -102 215q-7 14 -21.5 42.5t-21.5 43.5v2q-1 1 -3.5 5.5t-4.5 6.5q-20 25 -49 25q-16 0 -31 -6q-1 -1 -3 -3.5t-3 -3.5q-74 -66 -74 -170v-16q0 -64 -10 -100q-4 -14 -4 -45v-2q-2 -45 -2 -152q0 -17 4 -29v-4l6 -12q0 -4 4 -4 q1 -2 3 -5t3 -5q1 0 2 -1t2 -1q0 -2 -1 -4.5t-1 -4.5q-6 -12 -12 -12l-2 -2h-31q-29 0 -41 2q-68 8 -153 8h-11h-2q-14 8 -14 21q17 20 27 43q2 2 2 10q0 1 1 3.5t1 4.5v29v98q0 58 0.5 168t0.5 200.5t-1 170.5v18q0 112 -10 154q-3 21 -3 49v10v176v60v20v47q-3 55 -38 90 q-5 10 -5 11z" />
<glyph unicode="L" horiz-adv-x="890" d="M106 8q-8 8 0 33q24 31 33 55q1 3 2 9.5t2 9.5q10 27 13 49q8 55 8 170v190q-3 167 -3 278q0 56 1 97v50q0 129 -8 300q1 3 2 8.5t2 8.5v14l-6 18q-10 31 -11 35q-1 3 -4 9.5t-4 9.5q-2 3 -5.5 11t-4.5 11q-5 11 -2 27h-2q2 0 4 2q-3 -3 1 -1l3 3q12 8 18 10h9q4 2 16 2 q41 0 80 8q10 2 37 2h6h61h35q2 0 4 -2q0 -2 4 -6q2 -4 2 -16l-14 -14q0 -1 -1 -4t-1 -5l-23 -53v-8q-2 -2 -2 -8v-21v-30q0 -67 9 -109q2 -10 2 -39v-22q5 -138 5 -303q0 -82 -1 -171q-2 -63 -2 -192v-57v-27q0 -4 4 -16q1 -1 3 -4.5t3 -4.5q12 -18 14 -20q29 -45 92 -51 h66q65 0 139 6q6 0 8 2q28 8 52 39q19 11 34 -4q0 -37 1 -110.5t1 -110.5v-25v-4v-2q0 -6 -4.5 -11.5t-9.5 -5.5q-23 -2 -74 -2q-33 -2 -96 -2h-69h-13q-57 0 -88 -8q-1 0 -4 -1t-4 -1h-64q-12 0 -37 -1t-38 -1q-65 0 -115 6q-6 2 -18 2q-5 0 -15.5 -1t-15.5 -1q-2 0 -6 -1 t-6 -1q-2 2 -5 2z" />
<glyph unicode="M" horiz-adv-x="1306" d="M102 25q2 5 9 12q15 23 20 37q1 1 2 4t2 4q4 8 4 14v13q2 10 2 34v43q4 108 13 152q2 18 2 55v17v208v326q2 57 2 170q0 20 1 61t1 62q0 49 -2 78q-2 14 -8 31h-3q0 2 -1 4.5t-1 3.5q-9 11 -20 20q-3 18 10 25q1 0 3.5 1t4.5 1q53 0 97 8q14 0 43 1t43 1q31 2 88 2h47 q41 -11 53 -55q3 -9 9 -29t9 -29q1 -4 3.5 -11t3.5 -11q1 -6 6.5 -24.5t7.5 -28.5q21 -67 37 -123q2 -7 18 -45q11 -14 25 -21h2q9 -6 16 -6t15 4q32 16 41 49q31 103 34 113q6 20 24.5 78.5t27.5 89.5q7 18 20 31q36 20 84 20h4q39 -2 131 -2h105h43q8 -4 10 -6l10 -10v-2 q0 -3 -1 -9.5t-1 -9.5q-29 -29 -29 -77v-9q5 -210 5 -225q0 -48 -1 -105t-2 -137t-2 -133q0 -60 -8 -104q-2 -16 -2 -51v-13v-61q0 -76 -2 -113v-21q0 -67 10 -180q0 -17 4 -53q0 -3 5 -18q2 -2 2 -4t2 -4q7 -16 24 -33q0 -11 -10 -21q-45 0 -133.5 1t-132.5 1l-2 2 q-13 10 -6 27q1 1 2 3t2 3q10 18 18 35v8q2 4 2 12q0 7 1 23.5t1 24.5q0 98 -1 289t-1 288q0 4 -1 12.5t-1 12.5q0 2 -1 6t-1 6q0 22 -20 25q-2 2 -9 2q-15 0 -22 -13q-48 -61 -101 -161q-56 -118 -73 -150q-15 -32 -51 -80q0 -3 -13 -6q-2 -2 -4 -2q-10 0 -14 8 q-37 46 -58 119q-36 111 -92 227v4q-1 1 -3.5 5.5t-4 7t-4.5 6.5t-6.5 7t-8.5 6t-10 5q-4 2 -10 2q-10 0 -14 -4q-10 -3 -14 -18q0 -2 -2 -4q-5 -15 -5 -25v-84v-41v-65v-203q0 -41 -8 -103q0 -2 -6 -79v-31q0 -8 2 -12q0 -17 6 -25l6 -12l5 -8q0 -3 2 -5q0 -2 4 -6 q0 -2 1 -5t1 -5q4 -14 -4 -18q-3 -3 -23 -13h-162h-92h-22l-7 4q-2 4 -2 7z" />
<glyph unicode="N" horiz-adv-x="1114" d="M106 45q2 3 7.5 9t7.5 9v3q24 53 24 124q0 111 2 168v21q0 51 9 98q4 18 4 58v6v368v6q0 76 -8 117q-1 5 -2.5 17.5t-2.5 17.5v16v25q-1 18 -2 54.5t-2 54.5q0 34 -12 104q0 9 -4 25q-3 20 -21 38q0 11 3 17q3 7 18 14h109h61h43q1 0 3 -1t3 -1q4 0 7 -1l3 -1 q40 -16 54 -53q2 -4 6 -13.5t6 -13.5q6 -16 19.5 -47t19.5 -47q2 -5 6 -16.5t6 -16.5q19 -56 37 -88q2 -4 12 -29l2 -6q4 -10 12.5 -30.5t12.5 -30.5q12 -36 47 -125q3 -7 9 -21.5t9 -21.5q32 -78 35 -86q4 -15 21 -41l2 -2q7 -10 24 -16l2 -2q6 -3 13 -3q11 0 20 9 q17 17 17 47v4v250v75q0 16 -0.5 47t-0.5 56t1 47q0 61 -27 141q0 3 -4 11q-3 21 18 32h13q58 -4 81 -4q41 -2 123 -2q8 0 24.5 -1t24.5 -1q7 -3 9 -8q2 -4 2 -10q-34 -34 -37 -95v-59q2 -12 2 -35v-178v-590q0 -10 -2 -113t-4 -161q-1 -24 -6.5 -69t-6.5 -58l-2 -12 q0 -5 -4 -5q-88 -18 -118 -18q-40 0 -74 12q-38 24 -60 76q-56 115 -102 244l-8 22q-17 46 -45 119q-12 31 -51 146q-2 7 -7 19t-6 13q-9 31 -32 88q-3 11 -13 21l-4 8q-9 12 -24 12h-5q-18 -3 -24 -22q0 -1 -1 -4t-1 -4q-1 -3 -6 -23v-51q-4 -84 -9 -113q-2 -8 -2 -22v-6 l-2 -84q0 -106 -4 -318q0 -7 1 -19.5t1 -17.5q0 -2 1 -5t1 -5v-8q9 -18 21 -33v-12l-2 -2l-4 -4q-2 -1 -5.5 -4.5t-5.5 -4.5q-126 -4 -192 -4h-57h-2q-12 12 -5 29z" />
<glyph unicode="O" horiz-adv-x="1136" d="M104 657v7q0 12 3 33t4 26q1 7 6 47q0 8 1 25.5t1 25.5q0 22 4 58q0 15 8 51q1 3 2 9t2 9q3 18 6 33q11 53 19 80q17 66 57 180q11 31 53 80q3 3 6.5 5.5t8 5t6.5 3.5q92 54 174 66q26 4 39 8q2 1 31 6h10h8q13 0 49 -8q28 -8 45 -8q7 -1 47 -21l2 -2q60 -31 113 -49 q61 -47 106 -129q40 -78 58 -115q14 -28 16 -34q7 -15 10 -25q35 -119 35 -188q-2 -16 -2 -48v-145q0 -9 -4 -33q-1 -2 -2 -6t-2 -6v-6q-4 -12 -4 -23q0 -13 -1.5 -26t-5.5 -28t-7 -24.5l-9 -28.5t-8 -26l-4 -10q-2 -5 -5 -14.5t-5 -14.5q-32 -101 -66 -161 q-52 -92 -121 -156q-50 -50 -133 -62q-20 -4 -32 -6q-45 -5 -60 -8q-20 -4 -28 -4q-7 0 -23 4q-32 12 -80 12q-6 2 -16 2q-32 3 -66 23q-21 12 -31 25q-1 1 -3 4t-3 4q-4 8 -18 22q-9 9 -17.5 18t-17.5 20.5t-15 19.5t-14.5 22t-13 21t-13.5 24t-11.5 22t-12.5 24.5 t-12 23.5q-2 3 -5 10t-5 10q-39 80 -39 148v2q0 25 -4 37q-12 43 -12 117q0 20 1 42zM348 567q0 -39 6 -57q3 -9 6 -21q14 -46 33 -81l2 -2q39 -50 86 -87q1 0 3 -1t3 -1q8 -4 11 -4q16 -8 26 -10q16 -4 29 -4q12 0 16 2q113 27 148 129l4 10q29 86 37 129q3 24 6 45 q3 40 12 78q10 53 10 164q0 41 -16 111q-2 12 -6 32q-2 9 -7 23t-7 20q-1 1 -2.5 4.5t-2.5 4.5q-19 51 -67 69q-16 7 -53 21q-2 1 -7.5 3t-7.5 3h-4q-18 4 -51 4q-49 0 -98 -18q-46 -16 -64 -60q-29 -69 -31 -104q-1 -6 -3 -18.5t-3 -18.5q0 -4 -1 -14t-1 -15l-2 -8 q-4 -32 -4 -53v-275z" />
<glyph unicode="P" horiz-adv-x="1071" d="M102 1405h2v2q2 0 2 2q2 1 10.5 2t12.5 2h47h98h9h39h38q62 0 97 2h75q84 0 123 -2q29 0 95 -12q3 0 8 -1t8 -1q28 -6 51 -25q75 -75 103 -155q14 -37 30 -101q1 -2 2 -5.5t2 -4.5q13 -50 13 -66q2 -33 2 -98v-39q-4 -20 -6 -28q-26 -142 -68 -211q-30 -45 -37 -52 q-103 -106 -233 -129q-5 -1 -14.5 -2t-14.5 -2q-68 -14 -113 -14h-10h-4q-43 0 -70 -35q-1 -1 -3 -4t-3 -4q-22 -60 -22 -132v-18v-139v-55q0 -6 2 -8q6 -21 18 -33v-2q0 -6 -2 -10v1v-10l-4 -2q-16 -10 -37 -14q-14 0 -40 1t-38 1q-17 1 -46 4.5t-53 5.5t-46 2q-2 3 -8 15 q24 22 24 86q2 109 2 323q0 68 1 209t1 211q0 197 -2 293q0 84 -2 125v27q0 31 -16 57q-11 22 -14 27l-5 6q-4 6 -4 10zM387 819q0 -8 4 -20q0 -1 1 -3.5t1 -4.5q3 -13 15 -19q44 -24 88 -24h6q7 0 21.5 -1.5t21.5 -1.5h8q68 0 141 46q42 22 45 67q9 60 9 111q0 44 -7 80 q-18 98 -94 135q-1 1 -4.5 2t-5.5 2q-9 0 -32 1t-36 1q-14 0 -39.5 -1t-37.5 -1q-21 0 -31 -2q-13 0 -17 -2h-4q-19 -3 -34 -20t-17 -36v-2q-2 -4 -2 -16v-291z" />
<glyph unicode="Q" horiz-adv-x="1220" d="M104 676v33v34q2 17 2 34t-2 34v10q0 34 11 105q7 33 10 57q2 7 6 20.5t6 20.5q28 81 47 115q20 39 45 94l7 12q35 68 94 101q6 2 18 10q36 19 68 30q62 21 123 29h30q34 0 82 -10q38 -13 49 -19q3 -2 5 -2q8 -6 28 -14q52 -20 101 -78q61 -73 90 -116q43 -63 67 -121.5 t43 -143.5q1 -7 4 -18q16 -72 17 -123v-33v-100q-2 -4 -2 -12q0 -57 -11 -84q-4 -16 -4 -27t-1.5 -23t-3.5 -20.5t-6.5 -23.5t-6.5 -21t-8.5 -23.5t-7.5 -21.5l-5 -8q-2 -7 -7 -21.5t-7 -21.5q-2 -8 -2 -21q2 -2 2 -8q0 -10 4 -14q0 -4 4 -8q8 -16 19 -27q6 -8 18.5 -23.5 t18.5 -23.5q6 -6 26 -31h2q14 -16 33 -43q14 -19 2 -43l-6 -16q-41 -80 -66 -154q-10 -26 -34 -31q-26 6 -45 25q-50 47 -89 86q-14 14 -26 29q-2 2 -5 6t-5 6q-2 1 -6.5 4t-6.5 4q-36 8 -53 8q-30 0 -61 -14q-2 -1 -6.5 -3t-6.5 -3q-44 -22 -61 -27q-24 -8 -39 -8h-68h-79 q-20 5 -38.5 15t-27 16.5t-25.5 21.5q-2 2 -13.5 14.5t-18.5 18.5q-4 4 -12.5 13.5t-12.5 13.5q-75 75 -141 227q-5 27 -19 68q-20 70 -20 102q0 6 -2 8q-15 55 -15 158zM317 655q0 -5 5 -30q1 -3 3 -10.5t3 -10.5q24 -93 45 -143q11 -29 41 -84q25 -49 69 -70 q22 -14 45 -14q27 0 54 20q18 15 8 35q-10 22 -39 60q-33 47 -39 65q4 8 8 12q20 20 82 66q21 14 39 29q4 4 8 4q8 4 10 6q12 6 23 6q6 0 14 -4q4 -2 23 -21q32 -37 63 -43h6q15 0 21 9l4 4q15 15 18 22q9 28 11 41q0 13 4 37q0 32 6 59q2 10 2 22q0 22 -6 52q0 3 -3 17.5 t-3 21.5v5q0 31 -21 104l-2 8q-44 131 -170 203q-2 1 -6.5 2t-7.5 2h-17q-22 0 -32 2h-8q-91 0 -146 -80q-12 -17 -61 -103q-5 -8 -12 -26t-7 -19l-2 -6q-33 -96 -33 -228v-22z" />
<glyph unicode="R" horiz-adv-x="1099" d="M102 8v8v2q24 21 35 45h2q25 60 25 160v365v262v201v4q0 61 -6 125q-3 19 -3 42q0 14 1 29v41q-5 58 -6 62q-2 24 -27 43v2q0 2 -2 2v2l4 4q0 2 1 4.5t1 3.5h184h340h6q74 0 109 -18q41 -28 80 -80q2 -2 5 -6t5 -6q12 -20 21 -29q25 -36 41 -88q25 -87 36 -150 q7 -39 2 -63q-2 -9 -8 -66q0 -5 -1 -14.5t-1 -13.5q-6 -64 -31 -129q-17 -39 -43 -68q-5 -4 -14 -13.5t-14 -13.5l-43 -43q-21 -23 -21 -48q0 -10 4 -21q4 -14 13.5 -40.5t13.5 -39.5q33 -101 53 -150q19 -47 23 -61q24 -74 69 -162v-4q1 -2 9 -10t12 -10q3 -2 7.5 -6 t6.5 -5q3 -6 4 -6q0 -2 1 -4.5t1 -3.5q-4 -15 -14 -23h-4h-4h-10h-47q-70 -2 -211 -2l-7 7q2 4 2 10q0 1 5 6q18 33 6 57q-37 93 -62 148q-37 90 -90 209l-8 20q-2 3 -6.5 12.5t-7.5 14.5q-20 30 -50 30q-15 3 -28 3q-15 0 -27 -3q-24 -3 -41 -24q-28 -39 -28 -78 q-3 -38 -3 -76v-30q0 -26 -1 -81t-1 -81q0 -8 1 -23.5t1 -23.5q3 -9 3 -21t6 -18q4 -2 8 -10q14 -18 20 -23l2 -2q3 -14 -4 -27h-10q-60 0 -106 -10q-6 -2 -25 -2h-10q-16 -2 -53 -2q-40 0 -58 2h-29q-1 1 -2 3t-2 3zM379 856q0 -21 4 -31q1 -4 8 -18q1 -1 2 -3t2 -3 q3 -9 15 -13l47 -20q1 -1 4.5 -2t5.5 -2q15 0 35.5 -1t27.5 -1q32 0 52.5 6t58.5 25q4 0 10 6q67 80 67 197q0 14 -1 28q0 4 -2 6q0 3 -1 7.5t-1 6.5q-9 33 -16.5 52.5t-27 45.5t-46.5 40q-1 0 -3.5 1t-3.5 1l-24 6q-68 14 -92 14t-45 -6q-7 0 -9 -2q-53 -27 -65 -102 q-2 -14 -2 -45v-193z" />
<glyph unicode="S" horiz-adv-x="1054" d="M104 242q15 31 31 53q42 67 111 154q15 0 22 -21v-6q0 -8 2 -12q11 -20 45 -45q3 -3 9 -8t8 -7q14 -17 47 -45l8 -8q58 -55 129 -55q2 0 7 1t7 1q17 0 25 2h12q2 0 5.5 1t5.5 1l22 10q18 10 43 21q45 22 62 69v10q2 4 2 17v45q2 30 -23 78q-2 4 -8 10q-89 74 -195 110 q-87 28 -153 80q-115 86 -138 199q-4 12 -4 21q-12 52 -12 96v82q0 3 1 8t1 8v2q6 34 23.5 70t31.5 56t39 54q28 35 95 80l20 10h2q31 12 64 21q8 4 24 8h19h28q27 0 37 2h14q27 0 89 -12q20 -4 28 -6q1 0 33 -13q7 -4 26 -14t29 -16l4 -2q6 -4 18.5 -11.5t18.5 -11.5 l12 -12q20 -18 17 -49q-24 -28 -39 -43q-82 -86 -123 -142q-2 -3 -6 -8t-6 -8q-12 3 -19 10q-5 21 -10 29q-22 42 -59 45q-16 2 -39 2q-47 0 -82 -14q-2 -2 -6 -2q-37 -14 -49 -37q-23 -38 -23 -72q0 -10 2 -20q3 -22 19 -41q10 -15 34 -29q94 -55 185 -76q65 -12 137 -57 q46 -25 94 -88q67 -87 88 -232q4 -29 4 -56q0 -39 -8 -75q-2 -11 -22 -88q-14 -45 -17 -65q-1 -3 -10 -21q-16 -28 -39 -63q-23 -26 -47 -41q-85 -57 -156 -62q-14 0 -26 -6q-7 0 -11 -2q-24 -6 -45 -6q-12 0 -24 4q-35 5 -41 6q-65 12 -94 23q-5 0 -13 4q-60 20 -100 47h-2 q-6 6 -10 8q-59 24 -105 76q-34 31 -65 43q-14 14 -11 31z" />
<glyph unicode="T" horiz-adv-x="925" d="M102 1171v160q0 19 2 25q3 14 9 22v2q22 19 49 19q19 0 60.5 1t64.5 1q27 0 39 2q111 0 166 8q18 2 61 2q20 2 59 2h50h83h3q37 0 69 -16q6 -3 6 -19v-153v-51q-4 -15 -14 -15h-6q-16 16 -31 21q-2 1 -5 2t-5 2q-9 0 -27.5 1t-27.5 1q-26 0 -62 -4q-10 -2 -27 -13 q-4 -4 -6 -4q-14 -7 -14 -22q0 -2 -1 -6t-1 -6q-1 -5 -2 -15.5t-2 -15.5q0 -65 -2 -96v-56v-24q0 -54 -8 -95q-2 -18 -2 -51v-12q0 -342 -7 -559v-103q0 -11 5 -36q0 -3 1 -8.5t1 -8.5q4 -12 10 -16q2 -4 10 -12q8 -6 21 -19h-3q-138 -3 -321 -6q4 3 12.5 8t12.5 8 q1 1 4.5 4t5.5 5q4 2 8 10l16 28q0 2 1 5t1 4q0 4 2 6q0 3 1 9t1 9v269v41v4q0 10 -2 16q-8 78 -8 236v112v123v14q0 72 6 107q5 32 5 63q0 24 -3 49q0 11 -4 13q0 14 -2 22q-3 12 -14 19.5t-23 7.5q-15 0 -44 2t-44 2q-50 0 -73 -16q-22 -8 -37 -23q-6 0 -8 -2q-5 5 -9 16z " />
<glyph unicode="U" horiz-adv-x="1060" d="M106 1391q-4 11 3 22q86 4 137 4q16 0 55 -1t61 -1q7 -3 7 -10q-29 -29 -29 -74v-6v-100q0 -117 -2 -174v-15q0 -20 -2 -30q-8 -43 -8 -125v-31v-94q0 -128 -2 -189q0 -66 16 -141q31 -109 109 -158q2 -2 7.5 -4t6.5 -2h18q12 -2 41 -2h2q80 0 121 68q1 3 2.5 6l3 6 t2.5 4q2 2 2 6q5 5 5 8q1 4 2 13.5t2 13.5q8 41 10 59q4 28 8 76v49q4 94 10 123q2 14 2 41v15v67q2 45 2 139q2 12 2 33q0 73 11 111q2 12 2 35v6q0 26 1 88t1 96q0 5 -1 14t-1 11v6q0 1 -1 4t-1 4q-8 12 -9 14q0 2 -1 5t-1 5q-3 19 2 29h220h32q6 -8 2 -26 q-15 -22 -26 -60q0 -1 -1 -4t-1 -4v-59q0 -24 -1 -75t-1 -77q-2 -45 -2 -133v-14q0 -17 -2 -23q-9 -44 -9 -145v-35q-2 -84 -1.5 -161t1.5 -148q0 -91 -36 -195q-23 -74 -80 -131l-2 -2l-45 -45q-48 -51 -113 -66q-14 -4 -19 -6h-2q-7 0 -23 -1t-24 -1q-23 0 -125 10 q-5 1 -15 2t-15 2q-50 6 -99 33q-6 3 -36 23q-2 1 -6.5 4t-6.5 4q-9 11 -17.5 22t-16.5 24.5t-14 23t-15 26t-12.5 24t-13.5 27t-13 25.5q-9 18 -10 22q-5 8 -9 23l-2 4q-28 105 -30 172v25q-2 12 -2 32v111q0 350 6 524q0 37 6 78q6 31 6 88q0 35 -23 58z" />
<glyph unicode="V" horiz-adv-x="1153" d="M102 1393q1 1 4.5 4t4.5 4q8 8 14 12h12q114 4 172 4h41q18 -9 21 -12l6 -6q-1 0 0 -2q2 -2 2 -4q-14 -22 -14 -50q0 -25 12 -55q1 -1 12 -47q0 -6 2 -10q2 -15 5 -31t7.5 -35t6.5 -30q3 -13 8 -38.5t8 -37.5q8 -51 10 -74q2 -13 6.5 -37t6.5 -37q6 -33 14 -92 q19 -124 31 -166q0 -3 1 -11t1 -13q3 -15 6 -33q2 -5 4.5 -11.5t5.5 -13.5t4 -10q4 -4 6 -8q4 -7 12.5 -14t18.5 -7q1 0 4 1.5t4 1.5q25 6 33 18q7 11 14 37q50 147 70 244q21 109 24 151v12q7 66 19 105q11 37 14 78q5 30 15 69q8 23 8 50q0 31 -10 67q0 8 -7 12l-8 8 q0 3 -2 5q1 -1 1 0t-1 4l-2 2q3 9 8 14q6 2 19 2h67q17 0 50 1t49 1h4q16 0 47 -1t47 -1h27q5 -8 -3 -16q-1 -1 -3 -4t-3 -4l-14 -11l-8 -8q-25 -40 -33 -94q-7 -48 -29 -146q-7 -22 -14 -59q-29 -124 -53 -205q-20 -66 -31 -121q-2 -12 -7 -34t-7 -33q-7 -28 -22.5 -86 t-22.5 -86q-2 -6 -8.5 -34t-10.5 -44q-10 -32 -20 -76q-10 -45 -41 -166q-3 -12 -10.5 -35.5t-10.5 -35.5l-4 -16t-4 -19q-2 -2 -2 -6q0 -26 21 -47q0 -2 1 -6.5t1 -6.5v-6q0 -2 -4 -6h-68h-4h-195h-35q-5 8 -2 18q5 0 5 5q16 24 16 51q0 10 -2 20q-2 12 -10 41 q-10 45 -11 53v7q-26 101 -43 192q-36 164 -43 189q-1 2 -2 7t-2 7t-2 7t-2 7q0 26 -12 72q-5 25 -6 29q-3 21 -8 32q-1 9 -4 23t-5 25t-2 20q0 15 -4 31v2q-12 48 -44.5 185t-51.5 212q-8 27 -10 41q-4 7 -8 25q-11 46 -44 79q-1 1 -2 5t-2 6z" />
<glyph unicode="W" horiz-adv-x="1314" d="M102 1409v2v2v2q12 0 37 1t37 1h2q41 0 128 -1t132 -1q1 -1 2 -3t2 -3v-12q-30 -13 -39 -41q0 -1 -1 -4t-1 -4v-2q0 -2 -1 -8t-1 -9q8 -194 8 -430q0 -71 -1 -145v-76q0 -5 2 -10l2 -6v-3q6 -18 28 -18h2h4q19 0 29 10q12 12 19 29q2 5 6 15.5t6 15.5q64 149 86 221 q14 47 43 90q14 22 24 22q13 0 25 -20q72 -112 104 -193q28 -73 70 -131q4 -4 25 -47q7 -13 20 -16h6q13 0 19 6q22 19 22 53v2v101q0 84 2 125v16q0 47 4 70q4 24 4 39v200v64q0 6 -4 14l-2 4v6q-4 25 -10 35q-9 33 -8 41q178 0 268 -2h4q6 -9 6 -16v-2q-2 -2 -12 -17v-2 q-10 -10 -12 -16q-1 -1 -3 -4t-3 -4q-2 -2 -6 -15v-10q-2 -8 -2 -27v-67v-443q0 -92 10 -137q4 -18 4 -59v-10q0 -45 -1 -135t-1 -134v-16v-6q0 -21 -2 -29q-8 -47 -8 -133v-33v-8q5 -23 20 -45q2 -8 2 -23l-4 -4q-12 0 -39 -1t-45 -1h-2h-12h-17q-18 0 -24 -2 q-24 -6 -51 -6q-32 0 -66 6q-6 0 -17 1t-16 1q-12 16 -12 31q7 23 0 49q0 4 -2 8q-72 160 -176 316q-6 12 -25 12h-6q-1 0 -3 -1t-3 -1q-17 0 -27 -12q-19 -24 -24 -35q-29 -74 -92 -186q-8 -21 -29 -58l-4 -8q-23 -41 -23 -70q0 -8 4 -16l6 -8q0 -9 -4 -17h-8h-311 q-1 1 -3 2.5t-3 2.5t-1.5 2l-1 2t-1.5 4l-2 16v2v4q19 75 19 154q0 47 -7 96q-4 35 -4 105v237v254q-1 39 -2 115t-2 114v48v8q0 2 -2 23.5t-4 33.5q-5 30 -5 41q0 39 -10 64v2q-9 18 -24 30q0 1 -1 3.5t-1 4.5q-5 11 -7 15q0 1 -1 3.5t-1 4.5z" />
<glyph unicode="X" horiz-adv-x="1239" d="M102 10v2q0 3 1.5 6t3 7t2.5 6q9 5 34 30l4 5q71 127 148 301q4 8 4 10q1 2 3 5t3 5q31 50 76 150q5 10 14.5 30.5t14.5 30.5q3 7 16 29q2 3 6 10t6 10q1 3 4 8.5t4 8.5q3 6 12.5 23.5t14.5 27.5q12 27 12 53q0 28 -14 53q-7 15 -22.5 46t-22.5 46q-53 109 -82 156l-2 2 q-4 6 -8.5 17t-5.5 12q-20 51 -70 141q-5 9 -15.5 27.5t-15.5 27.5q-9 23 -14 31q-6 12 -8 14q0 5 -4 9l-39 41q-1 1 -4 3t-4 3q-4 8 -4 14v4q76 2 225 2h33h63q4 -7 0 -24q-12 -22 -6 -50q1 -2 2 -7t2 -7q82 -157 113 -223q6 -9 12 -12v-2q14 -9 20 -9q5 0 7 2h4q2 0 4 1 t5 2t5 2q16 3 23 20q2 5 7.5 17t8.5 18q5 10 14.5 31.5t14.5 31.5q4 7 13 26t15 28q2 3 10 18.5t13 22.5q8 17 8 39q0 16 -4 34q0 7 -6 10v3q0 6 6 12h41q26 0 81 1t83 1h73q5 0 15.5 -1t15.5 -1q2 -4 2 -12q-28 -20 -47 -56q-19 -40 -58 -118.5t-57 -114.5l-2 -6 q-4 -6 -8.5 -17t-5.5 -12q-22 -33 -80 -147q-39 -76 -43 -82q-14 -28 -14 -64q0 -19 2 -31v-14q0 -4 4 -12q12 -21 22 -41q38 -69 43 -80l2 -4q16 -33 49 -99.5t50 -99.5q42 -83 69 -151q5 -11 15.5 -34t15.5 -34q4 -8 4 -12q11 -22 13 -27q37 -69 90 -102v-11v-2h-52h-116 h-146q-1 2 -2 6.5t-2 6.5q3 3 6.5 8.5t5.5 7.5q0 1 1.5 3t1.5 3q8 15 2 27q-10 20 -11 24l-24 54q-24 49 -62 128t-47 97l-4 8q-1 2 -6 11.5t-7.5 13.5t-8 11.5t-12.5 13t-15 10.5q-4 2 -14 2h-2l-25 -2q-14 0 -20 -13q-1 -1 -3.5 -3t-3.5 -3q-2 -4 -7 -11t-7 -11 q-22 -42 -61 -115q-31 -55 -41 -78q-24 -42 -56 -129l-2 -4q-4 -10 -4 -21q0 -19 13 -40v-3q4 -6 4 -12q0 5 -1 0q1 -1 1 -2l-2 -2h-299q-6 6 -7 6z" />
<glyph unicode="Y" horiz-adv-x="1136" d="M102 1399q3 13 13 16h59h229q1 -1 4.5 -3t4.5 -3l4 -4q-2 -2 -2 -8v-4q-4 -8 -4 -29v-4q1 -1 1.5 -3t1 -5.5t1.5 -5.5l10 -19q79 -163 108 -219q12 -25 39 -25q11 0 25 7q8 6 14 14l19 37q67 134 100 202q6 13 0 25v6q0 7 -4 15q5 19 6 20l2 4h162h133q7 -10 4 -18 q-26 -19 -45 -43q-1 -1 -1.5 -2.5l-1 -3t-1.5 -3.5l-6 -14q-5 -18 -16 -47q-54 -137 -115 -235q-32 -56 -43 -99q-17 -59 -68 -145q-4 -7 -12 -22.5t-12 -22.5q-2 -3 -6.5 -10.5t-6.5 -10.5q-1 -2 -2 -6t-2 -6q0 -17 -4 -49q-10 -105 -10 -167v-20v-100v-49q0 -63 8 -98 q2 -12 2 -41v-11v-100q0 -46 31 -74q0 -2 -4 -10l-2 -2q-4 0 -8 -4h-13h-116h-125h-7q-2 0 -2 2v6v4q37 27 37 66q0 9 -2 18q-8 51 -8 156v65v9v18q11 44 11 109q0 19 -1 39v49q2 31 2 92v41q0 2 -1 5t-1 5q-37 110 -78 182q-25 46 -53 107q-3 12 -10 26q-79 160 -96 193 q-15 30 -21 39q-14 29 -26 45q-1 2 -17 29q-28 52 -76 90q-2 2 -2 4z" />
<glyph unicode="Z" horiz-adv-x="1036" d="M102 55v6v13q8 47 11 106q6 69 6 72q36 83 90 160q16 22 47 68.5t47 68.5q145 209 184 270q75 119 138 242q13 24 13 49q0 15 -5 29q-2 6 -10 14l-15 12q-6 6 -18 6h-2q-8 0 -24.5 -1t-24.5 -1q-64 0 -119 -8q-8 -2 -29 -2h-10q-10 0 -14 -2q-13 0 -36 -1t-32 -1l-27 -2 h-8q-35 -12 -57 -31h-12h-7q-4 4 -6 8q0 170 2 254v2v5q0 1 2 3.5t4 2.5q45 2 111 10q90 8 137 8h37h256q88 0 131 -2h19q27 0 39 -2q2 0 5 -3.5t3 -4.5q2 -2 2 -6q0 -2 1 -7.5t1 -7.5v-16q0 -152 -2 -182q0 -2 -2 -4q0 -4 -2 -6q-26 -44 -80 -136.5t-80 -136.5 q-112 -198 -281 -450q-24 -37 -45 -72q-15 -25 -18 -29q-16 -25 -6 -57q4 -8 10 -14q2 -1 2 -3q1 -1 4.5 -3.5t8.5 -5t10 -3.5q74 -18 127 -18h4q149 0 225 2h57h6q21 0 31 4q18 9 25 -4l4 -8q0 -118 -19 -213q-7 -11 -16 -13q-52 -10 -94 -10q-33 0 -68 6q-47 6 -78 6h-55 q-38 0 -112 -1t-111 -1h-4h-17q-29 0 -43 -4q-43 -6 -80 -6q-22 0 -32 2h-35h-14q-20 0 -35 10q-12 15 -15 39z" />
<glyph unicode="[" horiz-adv-x="630" d="M104 1511q-2 7 2 19h3q62 1 180 2t178 2h2q23 0 37 -2q4 0 11 -7t9 -12v-6l2 -32v-91q-6 -6 -10 -6q-8 8 -14 8q-24 7 -43 7q-21 0 -53 -4q-3 -1 -10.5 -2.5t-10.5 -2.5q-14 0 -29 -10l-2 -2q-8 -4 -12 -8q-29 -47 -29 -96q-2 -23 -2 -68q-2 -55 -2 -168t4 -321v-97v-4 q0 -50 9 -100q4 -16 4 -53v-8q0 -66 2 -97v-88q0 -57 4 -86q7 -64 55 -90q1 0 3 -1t3 -1q2 0 4 -2q8 -4 21 -4h35h37q6 0 14 4q13 6 18 14l4 -4v-24v-125q-3 -12 -6 -27q-2 -4 -6.5 -9t-7.5 -5h-21l-28 -2q-55 0 -84 -2h-47q-47 0 -70 -2q-18 0 -56 -1t-57 -1h-4 q-13 13 4 36q7 11 7 17q2 2 2 10l-2 61q0 101 -2 152q0 57 -7 143q-6 59 -6 181v10q0 92 1 278.5t1 278.5v227v21q3 31 0 63v10q0 46 -10 80q-9 28 -25 47z" />
<glyph unicode="\" horiz-adv-x="1015" d="M102 1481q1 3 3.5 9t3.5 9h4q6 1 19.5 2t19.5 2q73 13 149 13h23q1 -2 3 -7.5t3 -7.5q-4 -8 -4 -12q-2 -2 -2 -8v-2q0 -20 2 -25q18 -46 36 -90q4 -12 12.5 -33.5t12.5 -32.5q4 -8 6 -14q2 -5 9.5 -24t9.5 -29q25 -79 63 -170q1 -3 3.5 -10t5 -13.5t5.5 -11.5 q2 -7 29 -74q39 -105 62 -151q48 -109 88 -215q15 -36 39.5 -103t35.5 -94q7 -19 22.5 -57.5t22.5 -57.5q10 -28 29 -74t23 -57q18 -48 43 -82q13 -16 30 -26v-8q0 -3 -4 -11q-62 0 -188 -4q-31 7 -45 21q11 38 -8 84q-11 22 -88 172q-38 75 -56 133q-8 27 -22 55v2 q-65 146 -119 301q-11 25 -21 58q-41 117 -69 178q-35 89 -37 96q-2 10 -10 35q-4 10 -17 45t-20 55q-36 101 -55 158q-18 49 -52 76z" />
<glyph unicode="]" horiz-adv-x="622" d="M104 -59q6 60 9 116q3 9 6 15q5 11 18 14q28 -12 62 -12h8q64 0 88 59q1 2 2 5t2 5v7q0 4 1 13.5t1 14.5v10q4 62 8 95q2 16 3 33t1.5 37.5t1.5 31.5v27q0 104 2 155q0 93 2 138q0 58 7 94q6 20 6 63v8q0 152 -2 228q0 50 -6 94q-3 17 -7 68v30q-3 41 -28 66q-6 6 -10 6 l-5 2q-1 0 -9 3.5t-13 4.5q-11 0 -27 4q-6 1 -18.5 3t-18.5 3q-20 4 -26 4q-25 0 -39 -12l-4 2q-4 2 -10 8q2 23 2 68q0 7 1 22.5t1 22.5q0 15 14 21q21 7 25 8q1 1 4.5 2t5.5 2h2h31h30q49 0 90 -8q16 -4 50 -4h8h14q35 0 53 -2q36 0 76 -3q1 -1 2 -3t2 -3q0 -10 -2 -14v-2 q-9 -9 -16 -27q-2 -2 -2 -4v-2q-4 -8 -4 -22v-6q-4 -62 -4 -97q0 -46 1 -139t1 -139q0 -47 1 -144t1 -145v-350q0 -88 -4 -256v-119v-21v-30q-4 -34 10 -74q0 -6 -4 -22q-4 -1 -13 -4t-14 -3h-6q-74 -4 -117 -4q-58 0 -129 11q-23 4 -67 4h-29q-4 0 -8 4q-14 20 -11 39z" />
<glyph unicode="^" horiz-adv-x="761" d="M104 1102q-2 5 7 18q2 0 10 4q4 4 8 6q6 3 10 11q25 46 51 106q54 128 111 230h2q2 3 5 9t5 9q8 8 11 8q38 0 112 -4h33q13 -8 16 -14q10 -21 32 -67.5t32 -67.5q9 -18 61 -136q18 -40 41 -63q8 -24 8 -35q-8 -8 -14 -10q-68 -48 -149 -86q-7 0 -11 2q-6 0 -14 4 q-5 78 -63 154q-7 9 -21 14q-1 0 -2 1t-2 1q-8 4 -14 4q-15 0 -25 -14q-18 -30 -37 -82q-2 -6 -7.5 -20t-8.5 -21q-2 -4 -2 -14v-15q0 -1 -1 -2t-1 -2h-2v-2l-4 -2l-15 6q-26 12 -79.5 34.5t-80.5 33.5z" />
<glyph unicode="_" horiz-adv-x="937" d="M104 -111q-2 56 2 156q0 2 5 12q0 2 2 2h4h41q7 0 21.5 -1t21.5 -1h112h250h113q2 0 6 1t6 1h12q13 0 33 -4q19 -8 45 -8t47 8q1 0 4.5 -1t4.5 -1q4 -70 -3 -184q-8 -8 -14 -8l-24 16q-9 6 -17 6h-393h-219q-8 0 -12 -2q-6 0 -18.5 -1t-18.5 -1l-2 2l-4 3q-4 3 -5 5z" />
<glyph unicode="`" horiz-adv-x="462" d="M102 1384v2v9q2 4 2 0q0 3 5 8q-1 -1 2 2q1 2 3 5t3 5q4 2 12 10q39 27 76 27h10q1 -1 4 -3t4 -3q4 0 8 -4q5 -4 5 -6q2 0 2 -4q0 -7 4 -11q7 -26 20 -41q3 -5 45 -65l17 -27q6 -6 10 -8q2 -2 7 -5t7 -5q8 -4 10 -6q2 -4 2 -13q-53 -66 -122 -94q-2 0 -5 1t-4 1l-4 43 q0 10 -2 12l-18 33q-32 57 -41 76q-23 42 -62 61z" />
<glyph unicode="a" horiz-adv-x="1253" d="M102 31l4 8q44 30 62 86l2 4q2 7 14 44t17 56q15 57 41 142q36 127 53 198q9 37 16 52q4 16 8 24q2 11 11 33q4 13 12 38.5t12 39.5q12 30 19 73q2 6 5 20.5t5 20.5q24 94 39 174q6 34 18 72q18 64 21 90q2 12 7 35.5t7 36.5q4 11 8 33q3 6 0 12q0 4 -2 6q0 2 -4 14 q-6 18 -20 29q0 4 -4 4q5 16 6 17l6 6h6q48 2 111 10q1 0 116 6h23q21 0 35 -20q20 -23 28 -54q5 -19 14 -54t11 -42q7 -30 21.5 -89.5t21.5 -88.5q2 -8 5 -23.5t5 -23.5q31 -135 47 -191q28 -86 37 -141q3 -16 23 -88q19 -74 22 -88v-6q16 -45 31 -121q2 -10 6 -30.5 t6 -30.5q3 -14 9.5 -41.5t9.5 -40.5q1 -4 3 -12.5t3 -12.5q9 -28 12 -53q5 -20 16 -51q1 -2 3.5 -7.5t3.5 -7.5q0 -7 6 -10q25 -29 41 -41l4 -12q1 -2 2 -6t2 -6q0 2 2 -7q0 -6 -2 -10l-2 -2h-4h-6h-52h-51h-108q-66 4 -95 8q-6 4 -10 15q0 1 1 3t1 3q22 25 22 59 q0 16 -5 35q-9 39 -31 59q-3 5 -10 9h-2q-12 6 -23 6q-10 0 -30.5 -1t-32.5 -1q-13 0 -40 1t-40 1h-80q-59 0 -86 -2q-11 0 -23 -6q0 -5 -4 -5q-10 -10 -14 -20q-2 -11 -7.5 -31.5t-6.5 -23.5l-4 -15v-8q0 -22 18 -49v-6q2 -2 2 -6q-4 -4 -4 -9l-4 -4h-2h-25h-4 q-176 0 -266 2h-8q-1 1 -4.5 3.5t-4.5 3.5q0 1 -1 3t-1 3zM518 498q0 -10 10 -17l15 -14q9 -6 18 -6q31 -2 78 -2q51 0 74 2q42 3 55 45q0 1 1 3t1 3v18l-10 45q-9 38 -26.5 115t-26.5 115q-3 15 -17 57q-4 4 -4 10q-2 4 -5.5 9.5t-4.5 7.5l-2 2q-13 20 -37 20 q-17 0 -31 -14q-44 -50 -53 -121q-4 -25 -14 -74t-11 -57q-1 -5 -3 -15.5t-3 -15.5q-8 -40 -8 -73q0 -23 4 -43z" />
<glyph unicode="b" horiz-adv-x="1077" d="M102 31l2 2q0 1 1 3t1 3q43 34 60 74q2 2 2 8t2 10v25q0 14 1 42t1 42v284q0 160 -2 238v137q-2 96 -2 289v125q0 1 -1 4t-1 4q-17 51 -55 76q-4 4 -7 4q0 2 -1 7t-1 7v6l2 2q1 1 3 2q1 0 1.5 0.5t0.5 1.5h163l47 -2q31 -8 93 -8h22h23h14q10 0 30.5 -1t30.5 -1 q26 0 82 -1t82 -1q29 0 64 -14q3 -1 9 -2t9 -2l8 -4q6 -6 15 -9q12 -6 20 -14q7 -9 43 -39q29 -20 47 -43q27 -46 37 -74q2 -6 5 -17t5 -15q5 -15 5 -17v-26q0 -53 2 -80q0 -65 -37 -178q-9 -34 -41 -66q-3 -3 -9.5 -8t-9.5 -8q-25 -22 -45 -47q-14 -21 2 -37q2 -3 7.5 -8.5 t7.5 -8.5q20 -24 32 -34q50 -44 78 -113q1 -4 4 -12.5t4 -12.5q3 -3 3 -6l14 -143q0 -2 -1 -5t-1 -5q-6 -42 -6 -50q-4 -53 -52 -151q-3 -3 -8 -9.5t-8 -9.5q-28 -36 -45 -53q-6 -6 -31 -26q-2 -2 -6 -5.5t-6 -5.5q-55 -22 -109 -22h-8h-8q-23 0 -33 -4q-40 -11 -90 -11 q-10 -2 -37 -2q-6 0 -8 -2q-25 0 -37 -4q-46 -8 -75 -8q-39 0 -80 8h-27q-19 0 -31 -2q-50 -6 -112 -6h-41q-13 13 -13 29zM395 547q4 -126 4 -207q3 -41 17 -84q6 -8 14 -14l2 -2q8 -8 25 -11q35 0 51 -2q16 0 46 -1t46 -1q13 0 36 1t34 1q5 2 16 9q67 55 70 143q1 16 1 33 q0 39 -5 84q0 2 -1 4.5t-1 3.5q-1 2 -4.5 7t-4.5 7q-6 15 -16 35q-28 63 -92 80q-2 2 -8 2q-25 2 -80 2q-15 0 -40.5 -1t-37.5 -1q-12 -4 -18 -8q-1 -1 -3 -2.5t-3.5 -3t-2.5 -3.5q-16 -12 -22 -20q-8 -8 -12 -16l-3 -2q-1 -2 -2 -5.5t-2 -5.5v-4q-4 -8 -4 -18zM397 903 q0 -17 17 -24q1 -1 3 -2.5t3 -2.5q14 -10 29 -12q35 -2 98 -2q65 0 96 4q15 0 21 6h4q4 4 6 4q36 28 45 74q1 2 2 8t2 9q3 8 8 32q4 38 2 58q-9 69 -61 96q-35 20 -41 23q-3 1 -8.5 4t-8.5 4q-2 2 -10 2q-32 4 -47 4q-63 0 -129 -29q-11 -8 -14 -18q0 -1 -1 -5t-1 -6 q-9 -17 -11 -34q-5 -74 -5 -139q0 -28 1 -54z" />
<glyph unicode="c" horiz-adv-x="1044" d="M106 567q-3 41 -3 89q0 84 8 192q2 34 18 100q8 26 21 64q17 56 18 63q17 55 57 133l4 6q22 48 78 91q70 51 123 73q82 39 176 39q19 0 51 -4q57 -5 103 -29q39 -19 82 -65q28 -32 71 -105q1 -4 4.5 -12t4.5 -12q4 -18 -7 -29q-12 -12 -32 -28q-19 -14 -27 -19l-12 -6 l-68 -16q-13 3 -24 14q-44 66 -129 94q-3 2 -5 2q-24 4 -40 4q-26 0 -50 -6h-6q-2 -2 -6 -2l-12 -6q-80 -41 -121 -127q-5 -8 -13 -25.5t-10 -21.5q-6 -10 -15.5 -30.5t-12.5 -26.5q-31 -71 -33 -123q0 -15 -2 -19q-12 -47 -12 -94q0 -42 10 -84q4 -16 4 -27v-8 q0 -33 14 -92q2 -6 6 -22q23 -96 78 -177q38 -49 68 -67q4 -4 16 -12q4 -3 15 -9.5t18 -11t18 -10t21 -8.5h6q44 -7 82 -7q28 0 55 3q2 0 5.5 1t5.5 1q41 20 92 67q34 28 35 29h10q8 -4 12 -8q7 -5 22.5 -15.5t22.5 -15.5q39 -31 41 -74q0 -5 -12 -20q-102 -117 -254 -140 q-17 -4 -51 -8l-23 -4q-44 10 -115 10h-12q-68 3 -123 43l-10 9q-24 18 -29 22q-1 1 -4 2t-4 2t-4 3.5t-5 4.5t-3 4q-4 5 -12.5 14.5t-12.5 14.5q-29 37 -43.5 56.5t-33 52t-27.5 61.5q-1 4 -3 11.5t-3 11.5q-4 16 -6 26q-23 75 -37 150q-1 7 -4.5 28.5t-4.5 34.5z" />
<glyph unicode="d" horiz-adv-x="1150" d="M109 1384v2q-10 14 0 27h4h41h8h92q39 -2 117 -2h16q55 0 92 2h21q37 2 112 2h56q117 -41 229 -155q9 -9 25 -37l4 -6q35 -61 59 -148q3 -10 14 -42.5t17 -51.5l14 -43q0 -7 1 -22t1 -23q4 -71 12 -105q0 -8 1.5 -23t1.5 -22q1 -23 1 -44q0 -67 -10 -107q-4 -14 -4 -41 q0 -60 -26 -166q-1 -5 -3.5 -16.5t-3.5 -16.5q-5 -24 -24 -61q-27 -44 -53 -82q-26 -39 -70 -62q-27 -13 -68 -45q-41 -29 -94 -45q-85 -26 -114 -31t-121 -6h-2q-101 0 -158 -2q-25 0 -37 -2q-66 -8 -110 -8h-3q-2 2 -5 6t-5 6v9q0 2 1 6t1 6v2q11 11 27 39q0 4 2 6 q3 22 3 48q0 15 -1 32v22v146q-2 35 -2 106v84q0 72 -2 109v26q0 81 -6 109l-2 352q10 46 10 113v22v10q0 52 -27 105q-11 11 -14 12zM397 324q0 -13 6 -19l15 -18q8 -7 18 -11q10 0 28.5 -1t27.5 -1q77 0 139 29q2 0 4 2q43 26 90 86q68 83 80 199q4 34 3.5 74.5t-3.5 87.5 v18q-1 5 -2 15.5t-2 15.5q-13 53 -21.5 83.5t-27 76t-41.5 81.5q-37 60 -76 86l-10 5q-27 6 -56 6h-22q-8 -2 -21 -2h-6q-21 0 -31 -2h-4q-19 -1 -35 -18t-18 -36q-2 -10 -2 -28q-1 -7 -2 -21.5t-2 -21.5q-10 -37 -10 -113q0 -12 -2 -16q0 -105 -2 -154q0 -65 -2 -98v-13 q0 -29 -2 -41q-11 -69 -11 -188v-63z" />
<glyph unicode="e" horiz-adv-x="999" d="M102 39q2 4 2 8q33 39 33 92v17q0 8 1 25.5t1 25.5v225v309v19q-1 14 -1 27q0 38 7 63q1 4 2 11t1.5 11.5t1.5 8.5v10q3 79 3 172q0 55 -1 115v98q0 54 -27 90q0 2 -2 2q-6 16 0 31q0 4 4 4v2q6 0 17 1t16 1q12 0 28 -4h9h20h29q5 0 15 -1t15 -1q52 0 101 8q31 6 98 6h12 h242h111q16 0 20 -2q4 -12 4 -22v-240q-4 -8 -14 -18q0 -3 -4 -7l-4 -2q-4 0 -8 2h-5q-2 2 -6 2q-1 0 -8.5 4t-13.5 5q-7 1 -21.5 3t-21.5 3q-23 0 -47 6q-28 4 -47 4q-27 0 -48 -6q-34 -6 -67 -6h-19q-40 -3 -75 -6q-25 -1 -42.5 -19t-19.5 -41q0 -9 -0.5 -26.5t-0.5 -32 t1 -27.5q2 -35 21.5 -54.5t54.5 -19.5h18q16 -2 48 -2q33 0 47 2q9 0 18 9l6 6q8 4 10 6t5 4.5t4 3.5q13 0 18 -8v-8q2 -14 2 -43q0 -33 2 -49v-27q5 -86 10 -111q0 -4 1 -11t1 -11q-1 -2 -5 -12t-7 -15q0 -2 -4 -6h-12q-18 12 -41 12h-21q-86 0 -129 -4q-10 0 -18 -8 l-14 -12q-9 -13 -9 -21q-6 -73 -6 -151q0 -64 4 -131q0 -5 4 -13l19 -28q1 -1 3 -4t3 -4q4 -4 4 -5q13 -6 19 -8q5 -1 14 -4t14 -4q68 -14 92 -14q15 0 42 -1t42 -1h33h6q44 0 62 -6q15 -5 34 -5q41 0 80 25q9 0 17 -4h4q2 -5 3.5 -14t2.5 -11v-8q0 -35 1 -100t1 -96l-2 -5 v-2h-4q-2 0 -6 -1t-6 -1l-99 -6h-4q-29 -4 -86 -4q-61 0 -92 4h-10q-12 1 -36.5 3t-37.5 3h-266h-80q-29 0 -43 -2q-15 6 -21 21q0 1 -1 3t-1 3z" />
<glyph unicode="f" horiz-adv-x="970" d="M104 45q10 7 15 14q4 8 4 15q0 2 1 6t1 6q0 4 1 17t1 20q0 53 1 159.5t1 159.5q2 115 2 349q2 8 2 24q-1 18 -1 34q0 40 7 69q2 16 2 45v12v299q0 33 -4 49q-9 37 -33 55q0 16 15 27q117 10 256 10h12h105h170h61h2q41 0 115 -16q10 -5 16 -15q4 -16 4 -51v-30v-11 q0 -2 2 -34.5t4 -49.5q2 -4 2 -16q-4 -12 -8 -18l-4 -9q-2 0 -2 -2l-4 2q-1 0 -3 1t-3 1q-17 13 -31 15h-2q-12 4 -18 4h-2q-20 -2 -62 -2q-58 0 -168 4q-12 2 -37 2h-12q-29 0 -41 -2q-15 -2 -29 -12l-2 -2q-14 -10 -14 -23q-14 -90 -16 -131q-2 -19 -2 -45q0 -31 2 -72 q0 -2 4 -10q13 -36 63 -41q50 -6 86 -6q7 0 21 1t20 1t10 4q10 4 25 18q2 2 8 2q1 -1 3 -4t3 -4v-55q2 -14 2 -39q0 -78 2 -117v-14q-4 -8 -4 -12q-3 -6 -8 -11h-4q-1 1 -3 3.5t-3 3.5q-4 6 -17 10q-32 4 -51 4q-6 0 -19.5 -1t-19.5 -1q-20 0 -30 -2q-28 0 -70 -17 q-4 0 -12 -4q-14 -3 -17 -16l-2 -6q-14 -34 -17.5 -49.5t-4.5 -51.5l-3 -96l-3 -96v-25v-20q0 -46 -9 -90q-4 -19 -4 -41q0 -15 2 -33q-2 -5 2 -14q0 -6 5 -11q10 -16 20 -24q0 -1 1 -3t1 -3v-8q-5 -9 -8 -11h-70h-18q-119 0 -176 2q-14 11 -11 29z" />
<glyph unicode="g" horiz-adv-x="1073" d="M106 604v31q-2 43 -2 81q0 75 9 128q6 24 6 47q0 78 16 141v8q0 14 8 50q11 38 11 45q18 35 30 56.5t32 51t43 53t50 41.5q84 58 197 76q34 6 72 6q28 0 94 -8q24 -4 80 -16q66 -14 108 -49q26 -20 35 -27q31 -19 37 -72v-12q0 -82 20 -176q5 -10 9 -12v-3q4 -20 4 -22 q-1 -1 -2 -3t-2 -3q-13 0 -41 -4q-8 -1 -25 -2t-25 -2q-33 -2 -90 -2h-4q-2 0 -5 1t-5 1q-4 2 -6 2l-6 4q-5 3 -9 4q-1 1 -3 4t-3 4v6q17 27 17 55q1 6 1 12q0 28 -13 55q-14 32 -39 50q-5 3 -15.5 9.5t-15.5 9.5l-12 8q-8 4 -13 4q-23 4 -69 4q-22 0 -76 -4q-2 0 -10 -4 q-113 -62 -144 -191q-4 -12 -4 -20q-35 -136 -35 -217q0 -13 -2 -19q-13 -52 -13 -125q0 -35 3 -75q11 -149 78 -267q23 -39 61 -57q1 0 3 -1t3 -1q1 -1 19 -10q7 -2 20.5 -6t20.5 -6q10 -5 16 -7h8h23q58 0 94 11q65 17 103 73q6 6 6 13q3 30 3 64t-3 73q-1 18 -15 32 t-32 17q-28 4 -45 4q-15 0 -39 -4q-13 0 -29 -8q-5 0 -21 -4l-2 -2q-2 0 -4 -2q-8 12 -12 20v12q0 7 -1 21t-1 20v13q0 17 -4 53q0 13 4 37q0 1 1 3t1 3q2 6 10 18q0 4 2 4l2 2h2q3 -1 8 -2t7 -2h12h8q65 15 191 15q53 0 80 2h28q40 0 60 -2q8 -10 4 -37q-2 -2 -5.5 -5 t-5.5 -5q-6 -9 -6 -19q0 -14 -2 -20v-47q-2 -70 -2 -211v-174v-5q0 -59 -8 -106q-7 -24 2 -53q3 -13 -6 -27q-25 -2 -76 -2q-59 0 -90 2q-1 0 -4 1t-4 1l-2 2q-11 0 -17 15v6q-7 35 -28 45q-4 2 -13 2h-10q-12 -6 -39 -15q-14 -5 -43.5 -15t-44.5 -15q-37 -13 -69 -13h-11 q-24 2 -68.5 12t-64.5 19q-39 15 -73 49q-9 9 -13 15q-13 11 -30 32q-53 61 -66 113q-9 27 -18 51q-14 34 -19 58q-12 46 -12 67v12q0 92 -15 158z" />
<glyph unicode="h" horiz-adv-x="1075" d="M102 6v4q0 9 2 17q2 2 2 8q6 6 9 12q4 4 4 10q0 7 2 9q0 4 1 13.5t1 14.5v4q1 4 3 13.5t3 13.5q1 9 2 27t2 26q4 45 4 135v25q2 88 2 264q-1 0 -1 106v59q0 47 1 48v86q0 15 1 48t1 50q-1 52 -2 157.5t-2 156.5v4q0 10 -4 22q0 7 -2 11q0 9 -10 16l-19 16q0 11 2 15 q90 4 127 4q41 0 119 -4h8q0 -1 1 -2t1 -2q-4 -12 -4 -17q-4 -8 -4 -12q-7 -10 -12 -23q-2 -2 -2 -6v-4q-4 -8 -4 -22v-31q0 -59 4 -90q8 -49 8 -113q0 -27 2 -41v-41q0 -7 1 -21.5t1 -21.5q1 -23 19 -43t41 -26h4q4 -2 18 -2h242q10 0 18 4h4q13 3 25.5 15t15.5 26v2 q2 6 2 18q2 135 2 393q0 7 -2 13v8q-3 12 -12 18l-6 6q0 1 -1 3.5t-1 3.5q0 4 2 6q2 4 4 6l4 4q85 10 168 10h66q4 -4 8 -4q2 -8 2 -22q-3 -8 -8 -27q-3 -12 -9 -21q-4 -12 -2 -18q0 -11 4 -23q0 -4 7 -43v-47v-18v-88v-404v-12q0 -69 -9 -106q-5 -24 -2 -52v-14 q-4 -287 -6 -410q0 -29 2 -43q0 -22 13 -38q0 -5 2 -7v-14q0 -2 -2 -4h-213h-31q-9 6 -12 20q15 15 28 60q2 8 2 20v2v33q1 73 2 222.5t2 222.5q0 5 -1 15t-1 15q-2 2 -2 6q-1 17 -15 31t-30 17l-2 2q-12 4 -20 4h-117h-109q-38 0 -71 -33q-23 -26 -23 -47q-4 -58 -4 -70 v-149v-119v-10q0 -61 -8 -90q-2 -8 -2 -50q0 -3 1 -9.5t1 -10.5q0 -10 4 -16q5 -9 8 -11q17 -25 17 -37q0 -2 -3 -4t-8 -5t-8 -5h-33h-4q-68 -2 -205 -2z" />
<glyph unicode="i" horiz-adv-x="460" d="M104 16v9q21 27 23 55q2 20 2 61q0 53 -2 80v127q0 80 1 240t1 239q2 88 2 265q2 57 2 172v30q0 27 -2 41q-3 38 -25 66q-2 0 -2 4q-6 18 9 25h14q23 0 69 1t68 1q14 0 37.5 -1t34.5 -1q2 0 6 -1.5t6 -1.5t10 -4v-6q0 -10 -4 -20v-2q-9 -14 -12 -31q-2 -14 -2 -39v-8 q0 -30 -1 -93.5t-1 -95.5q0 -137 -4 -411q0 -23 -4 -55q-5 -39 -5 -70.5t5 -54.5q6 -31 6 -95q2 -57 2 -172v-161v-41q2 -8 2 -25q0 -8 8 -20q0 -9 -2 -15q0 -2 -1 -4.5t-1 -3.5h-209h-2q-16 8 -22 12z" />
<glyph unicode="j" horiz-adv-x="645" d="M102 31v4q0 27 1 80t1 80v20q2 4 2 12q2 2 5.5 6.5t5.5 6.5q1 1 3 2t3 2h16q9 0 33 -1t40.5 -0.5t31.5 3.5q50 10 69 80l6 598v168v159v70q0 1 -1 3.5t-1 4.5q-15 50 -45 80q-2 4 -2 12l1 1q2 4 3 5q2 0 2 3h238h16q9 -4 11 -9q2 -2 2 -4q-18 -18 -21 -22q-2 -2 -4 -7 l-2 -6v-4q-4 -16 -4 -28v-76v-66q2 -203 2 -403.5t-2 -398.5v-62v-47q-3 -90 -35 -168q-44 -104 -160 -125h-18h-16q-13 0 -37 4q-7 1 -22.5 3t-22.5 3q-18 2 -51 2h-33q-10 5 -15 15z" />
<glyph unicode="k" horiz-adv-x="1171" d="M104 1397q-2 9 9 20q23 0 68.5 1t68.5 1q22 0 67.5 -1t67.5 -1v-2q2 -10 2 -12q-30 -30 -33 -74v-43q0 -48 1 -143t1 -142q0 -4 1 -10.5t1 -9.5v-6q0 -6 9 -19l2 -2q3 -6 16 -16q12 -4 21 -4q15 0 34 14q11 11 15 17q1 1 4 3t4 3q16 21 20 28q5 7 15.5 21.5t15.5 21.5 q105 155 141 228q3 6 9.5 17.5t9.5 17.5l16 32q8 13 2 29v2q0 4 -4 12q0 11 2 15q0 6 4 6q18 2 54 2q41 0 122.5 -1t122.5 -1h11h22q2 -2 -2 -10q0 -5 -4 -13q-4 -2 -8 -6q-13 -9 -17 -10l-10 -10q-2 -3 -5 -10.5t-5 -10.5q-6 -9 -27 -45q-32 -63 -67 -110q-27 -37 -35 -54 q-49 -98 -127 -182q-6 -6 -6 -12q-8 -23 -8 -45q0 -34 18 -68q40 -73 76 -180q64 -176 71 -193q4 -9 11.5 -28.5t11.5 -28.5q13 -36 20 -49q24 -43 41 -96q24 -77 80 -174l3 -4q3 -4 5 -5l27 -18q0 -14 -12 -23h-99q-57 0 -96 -8q-38 -6 -84 -6q-7 0 -20 1t-19 1q-9 8 -6 16 q19 19 27 46v12q-15 78 -58 168q-45 102 -102 215q-7 14 -21.5 42.5t-21.5 43.5v2q-1 1 -3.5 5.5t-4.5 6.5q-20 25 -49 25q-16 0 -31 -6q-1 -1 -3 -3.5t-3 -3.5q-74 -66 -74 -170v-16q0 -64 -10 -100q-4 -14 -4 -45v-2q-2 -45 -2 -152q0 -17 4 -29v-4l6 -12q0 -4 4 -4 q1 -2 3 -5t3 -5q1 0 2 -1t2 -1q0 -2 -1 -4.5t-1 -4.5q-6 -12 -12 -12l-2 -2h-31q-29 0 -41 2q-68 8 -153 8h-11h-2q-14 8 -14 21q17 20 27 43q2 2 2 10q0 1 1 3.5t1 4.5v29v98q0 58 0.5 168t0.5 200.5t-1 170.5v18q0 112 -10 154q-3 21 -3 49v10v176v60v20v47q-3 55 -38 90 q-5 10 -5 11z" />
<glyph unicode="l" horiz-adv-x="890" d="M106 8q-8 8 0 33q24 31 33 55q1 3 2 9.5t2 9.5q10 27 13 49q8 55 8 170v190q-3 167 -3 278q0 56 1 97v50q0 129 -8 300q1 3 2 8.5t2 8.5v14l-6 18q-10 31 -11 35q-1 3 -4 9.5t-4 9.5q-2 3 -5.5 11t-4.5 11q-5 11 -2 27h-2q2 0 4 2q-3 -3 1 -1l3 3q12 8 18 10h9q4 2 16 2 q41 0 80 8q10 2 37 2h6h61h35q2 0 4 -2q0 -2 4 -6q2 -4 2 -16l-14 -14q0 -1 -1 -4t-1 -5l-23 -53v-8q-2 -2 -2 -8v-21v-30q0 -67 9 -109q2 -10 2 -39v-22q5 -138 5 -303q0 -82 -1 -171q-2 -63 -2 -192v-57v-27q0 -4 4 -16q1 -1 3 -4.5t3 -4.5q12 -18 14 -20q29 -45 92 -51 h66q65 0 139 6q6 0 8 2q28 8 52 39q19 11 34 -4q0 -37 1 -110.5t1 -110.5v-25v-4v-2q0 -6 -4.5 -11.5t-9.5 -5.5q-23 -2 -74 -2q-33 -2 -96 -2h-69h-13q-57 0 -88 -8q-1 0 -4 -1t-4 -1h-64q-12 0 -37 -1t-38 -1q-65 0 -115 6q-6 2 -18 2q-5 0 -15.5 -1t-15.5 -1q-2 0 -6 -1 t-6 -1q-2 2 -5 2z" />
<glyph unicode="m" horiz-adv-x="1306" d="M102 25q2 5 9 12q15 23 20 37q1 1 2 4t2 4q4 8 4 14v13q2 10 2 34v43q4 108 13 152q2 18 2 55v17v208v326q2 57 2 170q0 20 1 61t1 62q0 49 -2 78q-2 14 -8 31h-3q0 2 -1 4.5t-1 3.5q-9 11 -20 20q-3 18 10 25q1 0 3.5 1t4.5 1q53 0 97 8q14 0 43 1t43 1q31 2 88 2h47 q41 -11 53 -55q3 -9 9 -29t9 -29q1 -4 3.5 -11t3.5 -11q1 -6 6.5 -24.5t7.5 -28.5q21 -67 37 -123q2 -7 18 -45q11 -14 25 -21h2q9 -6 16 -6t15 4q32 16 41 49q31 103 34 113q6 20 24.5 78.5t27.5 89.5q7 18 20 31q36 20 84 20h4q39 -2 131 -2h105h43q8 -4 10 -6l10 -10v-2 q0 -3 -1 -9.5t-1 -9.5q-29 -29 -29 -77v-9q5 -210 5 -225q0 -48 -1 -105t-2 -137t-2 -133q0 -60 -8 -104q-2 -16 -2 -51v-13v-61q0 -76 -2 -113v-21q0 -67 10 -180q0 -17 4 -53q0 -3 5 -18q2 -2 2 -4t2 -4q7 -16 24 -33q0 -11 -10 -21q-45 0 -133.5 1t-132.5 1l-2 2 q-13 10 -6 27q1 1 2 3t2 3q10 18 18 35v8q2 4 2 12q0 7 1 23.5t1 24.5q0 98 -1 289t-1 288q0 4 -1 12.5t-1 12.5q0 2 -1 6t-1 6q0 22 -20 25q-2 2 -9 2q-15 0 -22 -13q-48 -61 -101 -161q-56 -118 -73 -150q-15 -32 -51 -80q0 -3 -13 -6q-2 -2 -4 -2q-10 0 -14 8 q-37 46 -58 119q-36 111 -92 227v4q-1 1 -3.5 5.5t-4 7t-4.5 6.5t-6.5 7t-8.5 6t-10 5q-4 2 -10 2q-10 0 -14 -4q-10 -3 -14 -18q0 -2 -2 -4q-5 -15 -5 -25v-84v-41v-65v-203q0 -41 -8 -103q0 -2 -6 -79v-31q0 -8 2 -12q0 -17 6 -25l6 -12l5 -8q0 -3 2 -5q0 -2 4 -6 q0 -2 1 -5t1 -5q4 -14 -4 -18q-3 -3 -23 -13h-162h-92h-22l-7 4q-2 4 -2 7z" />
<glyph unicode="n" horiz-adv-x="1114" d="M106 45q2 3 7.5 9t7.5 9v3q24 53 24 124q0 111 2 168v21q0 51 9 98q4 18 4 58v6v368v6q0 76 -8 117q-1 5 -2.5 17.5t-2.5 17.5v16v25q-1 18 -2 54.5t-2 54.5q0 34 -12 104q0 9 -4 25q-3 20 -21 38q0 11 3 17q3 7 18 14h109h61h43q1 0 3 -1t3 -1q4 0 7 -1l3 -1 q40 -16 54 -53q2 -4 6 -13.5t6 -13.5q6 -16 19.5 -47t19.5 -47q2 -5 6 -16.5t6 -16.5q19 -56 37 -88q2 -4 12 -29l2 -6q4 -10 12.5 -30.5t12.5 -30.5q12 -36 47 -125q3 -7 9 -21.5t9 -21.5q32 -78 35 -86q4 -15 21 -41l2 -2q7 -10 24 -16l2 -2q6 -3 13 -3q11 0 20 9 q17 17 17 47v4v250v75q0 16 -0.5 47t-0.5 56t1 47q0 61 -27 141q0 3 -4 11q-3 21 18 32h13q58 -4 81 -4q41 -2 123 -2q8 0 24.5 -1t24.5 -1q7 -3 9 -8q2 -4 2 -10q-34 -34 -37 -95v-59q2 -12 2 -35v-178v-590q0 -10 -2 -113t-4 -161q-1 -24 -6.5 -69t-6.5 -58l-2 -12 q0 -5 -4 -5q-88 -18 -118 -18q-40 0 -74 12q-38 24 -60 76q-56 115 -102 244l-8 22q-17 46 -45 119q-12 31 -51 146q-2 7 -7 19t-6 13q-9 31 -32 88q-3 11 -13 21l-4 8q-9 12 -24 12h-5q-18 -3 -24 -22q0 -1 -1 -4t-1 -4q-1 -3 -6 -23v-51q-4 -84 -9 -113q-2 -8 -2 -22v-6 l-2 -84q0 -106 -4 -318q0 -7 1 -19.5t1 -17.5q0 -2 1 -5t1 -5v-8q9 -18 21 -33v-12l-2 -2l-4 -4q-2 -1 -5.5 -4.5t-5.5 -4.5q-126 -4 -192 -4h-57h-2q-12 12 -5 29z" />
<glyph unicode="o" horiz-adv-x="1136" d="M104 657v7q0 12 3 33t4 26q1 7 6 47q0 8 1 25.5t1 25.5q0 22 4 58q0 15 8 51q1 3 2 9t2 9q3 18 6 33q11 53 19 80q17 66 57 180q11 31 53 80q3 3 6.5 5.5t8 5t6.5 3.5q92 54 174 66q26 4 39 8q2 1 31 6h10h8q13 0 49 -8q28 -8 45 -8q7 -1 47 -21l2 -2q60 -31 113 -49 q61 -47 106 -129q40 -78 58 -115q14 -28 16 -34q7 -15 10 -25q35 -119 35 -188q-2 -16 -2 -48v-145q0 -9 -4 -33q-1 -2 -2 -6t-2 -6v-6q-4 -12 -4 -23q0 -13 -1.5 -26t-5.5 -28t-7 -24.5l-9 -28.5t-8 -26l-4 -10q-2 -5 -5 -14.5t-5 -14.5q-32 -101 -66 -161 q-52 -92 -121 -156q-50 -50 -133 -62q-20 -4 -32 -6q-45 -5 -60 -8q-20 -4 -28 -4q-7 0 -23 4q-32 12 -80 12q-6 2 -16 2q-32 3 -66 23q-21 12 -31 25q-1 1 -3 4t-3 4q-4 8 -18 22q-9 9 -17.5 18t-17.5 20.5t-15 19.5t-14.5 22t-13 21t-13.5 24t-11.5 22t-12.5 24.5 t-12 23.5q-2 3 -5 10t-5 10q-39 80 -39 148v2q0 25 -4 37q-12 43 -12 117q0 20 1 42zM348 567q0 -39 6 -57q3 -9 6 -21q14 -46 33 -81l2 -2q39 -50 86 -87q1 0 3 -1t3 -1q8 -4 11 -4q16 -8 26 -10q16 -4 29 -4q12 0 16 2q113 27 148 129l4 10q29 86 37 129q3 24 6 45 q3 40 12 78q10 53 10 164q0 41 -16 111q-2 12 -6 32q-2 9 -7 23t-7 20q-1 1 -2.5 4.5t-2.5 4.5q-19 51 -67 69q-16 7 -53 21q-2 1 -7.5 3t-7.5 3h-4q-18 4 -51 4q-49 0 -98 -18q-46 -16 -64 -60q-29 -69 -31 -104q-1 -6 -3 -18.5t-3 -18.5q0 -4 -1 -14t-1 -15l-2 -8 q-4 -32 -4 -53v-275z" />
<glyph unicode="p" horiz-adv-x="1071" d="M102 1405h2v2q2 0 2 2q2 1 10.5 2t12.5 2h47h98h9h39h38q62 0 97 2h75q84 0 123 -2q29 0 95 -12q3 0 8 -1t8 -1q28 -6 51 -25q75 -75 103 -155q14 -37 30 -101q1 -2 2 -5.5t2 -4.5q13 -50 13 -66q2 -33 2 -98v-39q-4 -20 -6 -28q-26 -142 -68 -211q-30 -45 -37 -52 q-103 -106 -233 -129q-5 -1 -14.5 -2t-14.5 -2q-68 -14 -113 -14h-10h-4q-43 0 -70 -35q-1 -1 -3 -4t-3 -4q-22 -60 -22 -132v-18v-139v-55q0 -6 2 -8q6 -21 18 -33v-2q0 -6 -2 -10v1v-10l-4 -2q-16 -10 -37 -14q-14 0 -40 1t-38 1q-17 1 -46 4.5t-53 5.5t-46 2q-2 3 -8 15 q24 22 24 86q2 109 2 323q0 68 1 209t1 211q0 197 -2 293q0 84 -2 125v27q0 31 -16 57q-11 22 -14 27l-5 6q-4 6 -4 10zM387 819q0 -8 4 -20q0 -1 1 -3.5t1 -4.5q3 -13 15 -19q44 -24 88 -24h6q7 0 21.5 -1.5t21.5 -1.5h8q68 0 141 46q42 22 45 67q9 60 9 111q0 44 -7 80 q-18 98 -94 135q-1 1 -4.5 2t-5.5 2q-9 0 -32 1t-36 1q-14 0 -39.5 -1t-37.5 -1q-21 0 -31 -2q-13 0 -17 -2h-4q-19 -3 -34 -20t-17 -36v-2q-2 -4 -2 -16v-291z" />
<glyph unicode="q" horiz-adv-x="1220" d="M104 676v33v34q2 17 2 34t-2 34v10q0 34 11 105q7 33 10 57q2 7 6 20.5t6 20.5q28 81 47 115q20 39 45 94l7 12q35 68 94 101q6 2 18 10q36 19 68 30q62 21 123 29h30q34 0 82 -10q38 -13 49 -19q3 -2 5 -2q8 -6 28 -14q52 -20 101 -78q61 -73 90 -116q43 -63 67 -121.5 t43 -143.5q1 -7 4 -18q16 -72 17 -123v-33v-100q-2 -4 -2 -12q0 -57 -11 -84q-4 -16 -4 -27t-1.5 -23t-3.5 -20.5t-6.5 -23.5t-6.5 -21t-8.5 -23.5t-7.5 -21.5l-5 -8q-2 -7 -7 -21.5t-7 -21.5q-2 -8 -2 -21q2 -2 2 -8q0 -10 4 -14q0 -4 4 -8q8 -16 19 -27q6 -8 18.5 -23.5 t18.5 -23.5q6 -6 26 -31h2q14 -16 33 -43q14 -19 2 -43l-6 -16q-41 -80 -66 -154q-10 -26 -34 -31q-26 6 -45 25q-50 47 -89 86q-14 14 -26 29q-2 2 -5 6t-5 6q-2 1 -6.5 4t-6.5 4q-36 8 -53 8q-30 0 -61 -14q-2 -1 -6.5 -3t-6.5 -3q-44 -22 -61 -27q-24 -8 -39 -8h-68h-79 q-20 5 -38.5 15t-27 16.5t-25.5 21.5q-2 2 -13.5 14.5t-18.5 18.5q-4 4 -12.5 13.5t-12.5 13.5q-75 75 -141 227q-5 27 -19 68q-20 70 -20 102q0 6 -2 8q-15 55 -15 158zM317 655q0 -5 5 -30q1 -3 3 -10.5t3 -10.5q24 -93 45 -143q11 -29 41 -84q25 -49 69 -70 q22 -14 45 -14q27 0 54 20q18 15 8 35q-10 22 -39 60q-33 47 -39 65q4 8 8 12q20 20 82 66q21 14 39 29q4 4 8 4q8 4 10 6q12 6 23 6q6 0 14 -4q4 -2 23 -21q32 -37 63 -43h6q15 0 21 9l4 4q15 15 18 22q9 28 11 41q0 13 4 37q0 32 6 59q2 10 2 22q0 22 -6 52q0 3 -3 17.5 t-3 21.5v5q0 31 -21 104l-2 8q-44 131 -170 203q-2 1 -6.5 2t-7.5 2h-17q-22 0 -32 2h-8q-91 0 -146 -80q-12 -17 -61 -103q-5 -8 -12 -26t-7 -19l-2 -6q-33 -96 -33 -228v-22z" />
<glyph unicode="r" horiz-adv-x="1099" d="M102 8v8v2q24 21 35 45h2q25 60 25 160v365v262v201v4q0 61 -6 125q-3 19 -3 42q0 14 1 29v41q-5 58 -6 62q-2 24 -27 43v2q0 2 -2 2v2l4 4q0 2 1 4.5t1 3.5h184h340h6q74 0 109 -18q41 -28 80 -80q2 -2 5 -6t5 -6q12 -20 21 -29q25 -36 41 -88q25 -87 36 -150 q7 -39 2 -63q-2 -9 -8 -66q0 -5 -1 -14.5t-1 -13.5q-6 -64 -31 -129q-17 -39 -43 -68q-5 -4 -14 -13.5t-14 -13.5l-43 -43q-21 -23 -21 -48q0 -10 4 -21q4 -14 13.5 -40.5t13.5 -39.5q33 -101 53 -150q19 -47 23 -61q24 -74 69 -162v-4q1 -2 9 -10t12 -10q3 -2 7.5 -6 t6.5 -5q3 -6 4 -6q0 -2 1 -4.5t1 -3.5q-4 -15 -14 -23h-4h-4h-10h-47q-70 -2 -211 -2l-7 7q2 4 2 10q0 1 5 6q18 33 6 57q-37 93 -62 148q-37 90 -90 209l-8 20q-2 3 -6.5 12.5t-7.5 14.5q-20 30 -50 30q-15 3 -28 3q-15 0 -27 -3q-24 -3 -41 -24q-28 -39 -28 -78 q-3 -38 -3 -76v-30q0 -26 -1 -81t-1 -81q0 -8 1 -23.5t1 -23.5q3 -9 3 -21t6 -18q4 -2 8 -10q14 -18 20 -23l2 -2q3 -14 -4 -27h-10q-60 0 -106 -10q-6 -2 -25 -2h-10q-16 -2 -53 -2q-40 0 -58 2h-29q-1 1 -2 3t-2 3zM379 856q0 -21 4 -31q1 -4 8 -18q1 -1 2 -3t2 -3 q3 -9 15 -13l47 -20q1 -1 4.5 -2t5.5 -2q15 0 35.5 -1t27.5 -1q32 0 52.5 6t58.5 25q4 0 10 6q67 80 67 197q0 14 -1 28q0 4 -2 6q0 3 -1 7.5t-1 6.5q-9 33 -16.5 52.5t-27 45.5t-46.5 40q-1 0 -3.5 1t-3.5 1l-24 6q-68 14 -92 14t-45 -6q-7 0 -9 -2q-53 -27 -65 -102 q-2 -14 -2 -45v-193z" />
<glyph unicode="s" horiz-adv-x="1054" d="M104 242q15 31 31 53q42 67 111 154q15 0 22 -21v-6q0 -8 2 -12q11 -20 45 -45q3 -3 9 -8t8 -7q14 -17 47 -45l8 -8q58 -55 129 -55q2 0 7 1t7 1q17 0 25 2h12q2 0 5.5 1t5.5 1l22 10q18 10 43 21q45 22 62 69v10q2 4 2 17v45q2 30 -23 78q-2 4 -8 10q-89 74 -195 110 q-87 28 -153 80q-115 86 -138 199q-4 12 -4 21q-12 52 -12 96v82q0 3 1 8t1 8v2q6 34 23.5 70t31.5 56t39 54q28 35 95 80l20 10h2q31 12 64 21q8 4 24 8h19h28q27 0 37 2h14q27 0 89 -12q20 -4 28 -6q1 0 33 -13q7 -4 26 -14t29 -16l4 -2q6 -4 18.5 -11.5t18.5 -11.5 l12 -12q20 -18 17 -49q-24 -28 -39 -43q-82 -86 -123 -142q-2 -3 -6 -8t-6 -8q-12 3 -19 10q-5 21 -10 29q-22 42 -59 45q-16 2 -39 2q-47 0 -82 -14q-2 -2 -6 -2q-37 -14 -49 -37q-23 -38 -23 -72q0 -10 2 -20q3 -22 19 -41q10 -15 34 -29q94 -55 185 -76q65 -12 137 -57 q46 -25 94 -88q67 -87 88 -232q4 -29 4 -56q0 -39 -8 -75q-2 -11 -22 -88q-14 -45 -17 -65q-1 -3 -10 -21q-16 -28 -39 -63q-23 -26 -47 -41q-85 -57 -156 -62q-14 0 -26 -6q-7 0 -11 -2q-24 -6 -45 -6q-12 0 -24 4q-35 5 -41 6q-65 12 -94 23q-5 0 -13 4q-60 20 -100 47h-2 q-6 6 -10 8q-59 24 -105 76q-34 31 -65 43q-14 14 -11 31z" />
<glyph unicode="t" horiz-adv-x="925" d="M102 1171v160q0 19 2 25q3 14 9 22v2q22 19 49 19q19 0 60.5 1t64.5 1q27 0 39 2q111 0 166 8q18 2 61 2q20 2 59 2h50h83h3q37 0 69 -16q6 -3 6 -19v-153v-51q-4 -15 -14 -15h-6q-16 16 -31 21q-2 1 -5 2t-5 2q-9 0 -27.5 1t-27.5 1q-26 0 -62 -4q-10 -2 -27 -13 q-4 -4 -6 -4q-14 -7 -14 -22q0 -2 -1 -6t-1 -6q-1 -5 -2 -15.5t-2 -15.5q0 -65 -2 -96v-56v-24q0 -54 -8 -95q-2 -18 -2 -51v-12q0 -342 -7 -559v-103q0 -11 5 -36q0 -3 1 -8.5t1 -8.5q4 -12 10 -16q2 -4 10 -12q8 -6 21 -19h-3q-138 -3 -321 -6q4 3 12.5 8t12.5 8 q1 1 4.5 4t5.5 5q4 2 8 10l16 28q0 2 1 5t1 4q0 4 2 6q0 3 1 9t1 9v269v41v4q0 10 -2 16q-8 78 -8 236v112v123v14q0 72 6 107q5 32 5 63q0 24 -3 49q0 11 -4 13q0 14 -2 22q-3 12 -14 19.5t-23 7.5q-15 0 -44 2t-44 2q-50 0 -73 -16q-22 -8 -37 -23q-6 0 -8 -2q-5 5 -9 16z " />
<glyph unicode="u" horiz-adv-x="1060" d="M106 1391q-4 11 3 22q86 4 137 4q16 0 55 -1t61 -1q7 -3 7 -10q-29 -29 -29 -74v-6v-100q0 -117 -2 -174v-15q0 -20 -2 -30q-8 -43 -8 -125v-31v-94q0 -128 -2 -189q0 -66 16 -141q31 -109 109 -158q2 -2 7.5 -4t6.5 -2h18q12 -2 41 -2h2q80 0 121 68q1 3 2.5 6l3 6 t2.5 4q2 2 2 6q5 5 5 8q1 4 2 13.5t2 13.5q8 41 10 59q4 28 8 76v49q4 94 10 123q2 14 2 41v15v67q2 45 2 139q2 12 2 33q0 73 11 111q2 12 2 35v6q0 26 1 88t1 96q0 5 -1 14t-1 11v6q0 1 -1 4t-1 4q-8 12 -9 14q0 2 -1 5t-1 5q-3 19 2 29h220h32q6 -8 2 -26 q-15 -22 -26 -60q0 -1 -1 -4t-1 -4v-59q0 -24 -1 -75t-1 -77q-2 -45 -2 -133v-14q0 -17 -2 -23q-9 -44 -9 -145v-35q-2 -84 -1.5 -161t1.5 -148q0 -91 -36 -195q-23 -74 -80 -131l-2 -2l-45 -45q-48 -51 -113 -66q-14 -4 -19 -6h-2q-7 0 -23 -1t-24 -1q-23 0 -125 10 q-5 1 -15 2t-15 2q-50 6 -99 33q-6 3 -36 23q-2 1 -6.5 4t-6.5 4q-9 11 -17.5 22t-16.5 24.5t-14 23t-15 26t-12.5 24t-13.5 27t-13 25.5q-9 18 -10 22q-5 8 -9 23l-2 4q-28 105 -30 172v25q-2 12 -2 32v111q0 350 6 524q0 37 6 78q6 31 6 88q0 35 -23 58z" />
<glyph unicode="v" horiz-adv-x="1153" d="M102 1393q1 1 4.5 4t4.5 4q8 8 14 12h12q114 4 172 4h41q18 -9 21 -12l6 -6q-1 0 0 -2q2 -2 2 -4q-14 -22 -14 -50q0 -25 12 -55q1 -1 12 -47q0 -6 2 -10q2 -15 5 -31t7.5 -35t6.5 -30q3 -13 8 -38.5t8 -37.5q8 -51 10 -74q2 -13 6.5 -37t6.5 -37q6 -33 14 -92 q19 -124 31 -166q0 -3 1 -11t1 -13q3 -15 6 -33q2 -5 4.5 -11.5t5.5 -13.5t4 -10q4 -4 6 -8q4 -7 12.5 -14t18.5 -7q1 0 4 1.5t4 1.5q25 6 33 18q7 11 14 37q50 147 70 244q21 109 24 151v12q7 66 19 105q11 37 14 78q5 30 15 69q8 23 8 50q0 31 -10 67q0 8 -7 12l-8 8 q0 3 -2 5q1 -1 1 0t-1 4l-2 2q3 9 8 14q6 2 19 2h67q17 0 50 1t49 1h4q16 0 47 -1t47 -1h27q5 -8 -3 -16q-1 -1 -3 -4t-3 -4l-14 -11l-8 -8q-25 -40 -33 -94q-7 -48 -29 -146q-7 -22 -14 -59q-29 -124 -53 -205q-20 -66 -31 -121q-2 -12 -7 -34t-7 -33q-7 -28 -22.5 -86 t-22.5 -86q-2 -6 -8.5 -34t-10.5 -44q-10 -32 -20 -76q-10 -45 -41 -166q-3 -12 -10.5 -35.5t-10.5 -35.5l-4 -16t-4 -19q-2 -2 -2 -6q0 -26 21 -47q0 -2 1 -6.5t1 -6.5v-6q0 -2 -4 -6h-68h-4h-195h-35q-5 8 -2 18q5 0 5 5q16 24 16 51q0 10 -2 20q-2 12 -10 41 q-10 45 -11 53v7q-26 101 -43 192q-36 164 -43 189q-1 2 -2 7t-2 7t-2 7t-2 7q0 26 -12 72q-5 25 -6 29q-3 21 -8 32q-1 9 -4 23t-5 25t-2 20q0 15 -4 31v2q-12 48 -44.5 185t-51.5 212q-8 27 -10 41q-4 7 -8 25q-11 46 -44 79q-1 1 -2 5t-2 6z" />
<glyph unicode="w" horiz-adv-x="1314" d="M102 1409v2v2v2q12 0 37 1t37 1h2q41 0 128 -1t132 -1q1 -1 2 -3t2 -3v-12q-30 -13 -39 -41q0 -1 -1 -4t-1 -4v-2q0 -2 -1 -8t-1 -9q8 -194 8 -430q0 -71 -1 -145v-76q0 -5 2 -10l2 -6v-3q6 -18 28 -18h2h4q19 0 29 10q12 12 19 29q2 5 6 15.5t6 15.5q64 149 86 221 q14 47 43 90q14 22 24 22q13 0 25 -20q72 -112 104 -193q28 -73 70 -131q4 -4 25 -47q7 -13 20 -16h6q13 0 19 6q22 19 22 53v2v101q0 84 2 125v16q0 47 4 70q4 24 4 39v200v64q0 6 -4 14l-2 4v6q-4 25 -10 35q-9 33 -8 41q178 0 268 -2h4q6 -9 6 -16v-2q-2 -2 -12 -17v-2 q-10 -10 -12 -16q-1 -1 -3 -4t-3 -4q-2 -2 -6 -15v-10q-2 -8 -2 -27v-67v-443q0 -92 10 -137q4 -18 4 -59v-10q0 -45 -1 -135t-1 -134v-16v-6q0 -21 -2 -29q-8 -47 -8 -133v-33v-8q5 -23 20 -45q2 -8 2 -23l-4 -4q-12 0 -39 -1t-45 -1h-2h-12h-17q-18 0 -24 -2 q-24 -6 -51 -6q-32 0 -66 6q-6 0 -17 1t-16 1q-12 16 -12 31q7 23 0 49q0 4 -2 8q-72 160 -176 316q-6 12 -25 12h-6q-1 0 -3 -1t-3 -1q-17 0 -27 -12q-19 -24 -24 -35q-29 -74 -92 -186q-8 -21 -29 -58l-4 -8q-23 -41 -23 -70q0 -8 4 -16l6 -8q0 -9 -4 -17h-8h-311 q-1 1 -3 2.5t-3 2.5t-1.5 2l-1 2t-1.5 4l-2 16v2v4q19 75 19 154q0 47 -7 96q-4 35 -4 105v237v254q-1 39 -2 115t-2 114v48v8q0 2 -2 23.5t-4 33.5q-5 30 -5 41q0 39 -10 64v2q-9 18 -24 30q0 1 -1 3.5t-1 4.5q-5 11 -7 15q0 1 -1 3.5t-1 4.5z" />
<glyph unicode="x" horiz-adv-x="1239" d="M102 10v2q0 3 1.5 6t3 7t2.5 6q9 5 34 30l4 5q71 127 148 301q4 8 4 10q1 2 3 5t3 5q31 50 76 150q5 10 14.5 30.5t14.5 30.5q3 7 16 29q2 3 6 10t6 10q1 3 4 8.5t4 8.5q3 6 12.5 23.5t14.5 27.5q12 27 12 53q0 28 -14 53q-7 15 -22.5 46t-22.5 46q-53 109 -82 156l-2 2 q-4 6 -8.5 17t-5.5 12q-20 51 -70 141q-5 9 -15.5 27.5t-15.5 27.5q-9 23 -14 31q-6 12 -8 14q0 5 -4 9l-39 41q-1 1 -4 3t-4 3q-4 8 -4 14v4q76 2 225 2h33h63q4 -7 0 -24q-12 -22 -6 -50q1 -2 2 -7t2 -7q82 -157 113 -223q6 -9 12 -12v-2q14 -9 20 -9q5 0 7 2h4q2 0 4 1 t5 2t5 2q16 3 23 20q2 5 7.5 17t8.5 18q5 10 14.5 31.5t14.5 31.5q4 7 13 26t15 28q2 3 10 18.5t13 22.5q8 17 8 39q0 16 -4 34q0 7 -6 10v3q0 6 6 12h41q26 0 81 1t83 1h73q5 0 15.5 -1t15.5 -1q2 -4 2 -12q-28 -20 -47 -56q-19 -40 -58 -118.5t-57 -114.5l-2 -6 q-4 -6 -8.5 -17t-5.5 -12q-22 -33 -80 -147q-39 -76 -43 -82q-14 -28 -14 -64q0 -19 2 -31v-14q0 -4 4 -12q12 -21 22 -41q38 -69 43 -80l2 -4q16 -33 49 -99.5t50 -99.5q42 -83 69 -151q5 -11 15.5 -34t15.5 -34q4 -8 4 -12q11 -22 13 -27q37 -69 90 -102v-11v-2h-52h-116 h-146q-1 2 -2 6.5t-2 6.5q3 3 6.5 8.5t5.5 7.5q0 1 1.5 3t1.5 3q8 15 2 27q-10 20 -11 24l-24 54q-24 49 -62 128t-47 97l-4 8q-1 2 -6 11.5t-7.5 13.5t-8 11.5t-12.5 13t-15 10.5q-4 2 -14 2h-2l-25 -2q-14 0 -20 -13q-1 -1 -3.5 -3t-3.5 -3q-2 -4 -7 -11t-7 -11 q-22 -42 -61 -115q-31 -55 -41 -78q-24 -42 -56 -129l-2 -4q-4 -10 -4 -21q0 -19 13 -40v-3q4 -6 4 -12q0 5 -1 0q1 -1 1 -2l-2 -2h-299q-6 6 -7 6z" />
<glyph unicode="y" horiz-adv-x="1136" d="M102 1399q3 13 13 16h59h229q1 -1 4.5 -3t4.5 -3l4 -4q-2 -2 -2 -8v-4q-4 -8 -4 -29v-4q1 -1 1.5 -3t1 -5.5t1.5 -5.5l10 -19q79 -163 108 -219q12 -25 39 -25q11 0 25 7q8 6 14 14l19 37q67 134 100 202q6 13 0 25v6q0 7 -4 15q5 19 6 20l2 4h162h133q7 -10 4 -18 q-26 -19 -45 -43q-1 -1 -1.5 -2.5l-1 -3t-1.5 -3.5l-6 -14q-5 -18 -16 -47q-54 -137 -115 -235q-32 -56 -43 -99q-17 -59 -68 -145q-4 -7 -12 -22.5t-12 -22.5q-2 -3 -6.5 -10.5t-6.5 -10.5q-1 -2 -2 -6t-2 -6q0 -17 -4 -49q-10 -105 -10 -167v-20v-100v-49q0 -63 8 -98 q2 -12 2 -41v-11v-100q0 -46 31 -74q0 -2 -4 -10l-2 -2q-4 0 -8 -4h-13h-116h-125h-7q-2 0 -2 2v6v4q37 27 37 66q0 9 -2 18q-8 51 -8 156v65v9v18q11 44 11 109q0 19 -1 39v49q2 31 2 92v41q0 2 -1 5t-1 5q-37 110 -78 182q-25 46 -53 107q-3 12 -10 26q-79 160 -96 193 q-15 30 -21 39q-14 29 -26 45q-1 2 -17 29q-28 52 -76 90q-2 2 -2 4z" />
<glyph unicode="z" horiz-adv-x="1036" d="M102 55v6v13q8 47 11 106q6 69 6 72q36 83 90 160q16 22 47 68.5t47 68.5q145 209 184 270q75 119 138 242q13 24 13 49q0 15 -5 29q-2 6 -10 14l-15 12q-6 6 -18 6h-2q-8 0 -24.5 -1t-24.5 -1q-64 0 -119 -8q-8 -2 -29 -2h-10q-10 0 -14 -2q-13 0 -36 -1t-32 -1l-27 -2 h-8q-35 -12 -57 -31h-12h-7q-4 4 -6 8q0 170 2 254v2v5q0 1 2 3.5t4 2.5q45 2 111 10q90 8 137 8h37h256q88 0 131 -2h19q27 0 39 -2q2 0 5 -3.5t3 -4.5q2 -2 2 -6q0 -2 1 -7.5t1 -7.5v-16q0 -152 -2 -182q0 -2 -2 -4q0 -4 -2 -6q-26 -44 -80 -136.5t-80 -136.5 q-112 -198 -281 -450q-24 -37 -45 -72q-15 -25 -18 -29q-16 -25 -6 -57q4 -8 10 -14q2 -1 2 -3q1 -1 4.5 -3.5t8.5 -5t10 -3.5q74 -18 127 -18h4q149 0 225 2h57h6q21 0 31 4q18 9 25 -4l4 -8q0 -118 -19 -213q-7 -11 -16 -13q-52 -10 -94 -10q-33 0 -68 6q-47 6 -78 6h-55 q-38 0 -112 -1t-111 -1h-4h-17q-29 0 -43 -4q-43 -6 -80 -6q-22 0 -32 2h-35h-14q-20 0 -35 10q-12 15 -15 39z" />
<glyph unicode="{" horiz-adv-x="788" d="M102 719q0 18 2 26v3q1 12 11 108q0 2 1 4.5t1 3.5q2 2 3 3.5t1.5 2t1.5 0.5q12 -6 27 -6q7 0 14 2.5t11 5.5t9 6.5t6 4.5q38 38 41 84q4 36 23 102q5 20 6 23q19 78 76 217q40 94 63 141q4 10 13.5 31.5t13.5 31.5q2 2 2 9q3 18 -4 34q10 10 25 13q4 2 10 2 q8 -1 24.5 -2t24.5 -2q16 0 24 -2q6 -2 19 -2q4 0 65 -11q15 -3 33 -6q2 0 4 -2q10 -5 13 -8q1 -4 -13 -18l-2 -2q-4 -4 -14 -9l-8 -8q-16 -25 -41 -80q-4 -12 -6 -16q-4 -12 -9 -17q-3 -12 -8 -22q-51 -105 -90 -264q-13 -47 -16 -96v-17q0 -7 -1 -21.5t-1 -21.5 q3 -50 -25 -98q-2 -2 -14 -27q0 -4 -4 -8q0 -4 -2 -8q-11 -56 8 -117q17 -44 26 -108q11 -87 37 -168q11 -34 33.5 -102.5t34.5 -102.5v-2q1 -2 4.5 -14.5t7.5 -18.5q35 -73 70 -174l4 -10q1 -3 2.5 -5.5t3 -5.5t2.5 -4q0 -1 1 -2t1 -2l2 -2q12 -16 35 -24q0 -2 2 -4 q0 -7 -2 -9q-23 -20 -45 -28q-63 -31 -141 -64q-8 8 -15 25q-4 27 -26 78q-23 48 -31 73l-6 21q-57 168 -74 225q-31 96 -63 248q-14 75 -64 147q-20 29 -55 43q-24 10 -45 13q-15 4 -17 10z" />
<glyph unicode="|" horiz-adv-x="423" d="M102 1733q4 18 19 24q27 6 55 6q35 2 107 2h24h4q2 0 2 -2l-1 1l1 -1l2 -2q2 -2 2 -4l2 -7v-1l-2 -2q0 -2 -2 -4q-10 -20 -10 -35q-2 -39 -10 -117q-9 -106 -8 -141v-276q0 -24 1 -71t1 -71v-80v-37v-18q5 -99 10 -129q4 -14 4 -51q0 -3 -1 -8.5t-1 -8.5v-229v-172v-57 v-285q0 -16 1 -46t1 -44q2 -20 2 -62q4 -33 10 -47q0 -1 1 -3t1 -3q8 -16 -2 -33h-133h-49v27q11 22 8 41v78q0 94 -8 141q-2 12 -2 39v16q-1 48 -2 145t-2 146l-4 127v8q3 13 0 29q-8 49 -8 150v45v176v133q-2 37 -2 110q0 25 -1 78t-1 80q0 39 1 118t1 118v114v52 q0 21 -11 43z" />
<glyph unicode="}" horiz-adv-x="792" d="M102 -84q14 7 21 14q25 25 41 78q24 70 49 119q1 3 4 10t5.5 13.5t4.5 11.5q16 47 17 53q64 194 80 268q3 10 8 41q4 36 10 51q2 4 2 11q1 23 23 94q4 8 4 12q6 12 6 25q2 2 2 6q2 4 2 10q-3 27 -29 78q-10 17 -20 41q0 13 -3 40.5t-3 33.5q-1 12 -4.5 34t-4.5 31 q-3 58 -22 121q-50 184 -135 346q-13 25 -33 37q-2 6 -2 18q35 12 61 15q71 10 158 37h2l4 -4q4 -4 4 -23q-4 -12 -4 -18q-2 -6 2 -17l6 -18q10 -31 21 -55q10 -23 35 -83t39 -90q4 -10 12 -29.5t12 -29.5q34 -77 62 -192q4 -20 4 -35q1 -4 2 -15t2 -16q15 -82 90 -117 q8 -4 12 -4q8 0 17 6q2 2 10 6q6 3 4 5l2 -2q1 -1 4 -3.5t4 -3.5q-10 -39 -14 -149v-4q-4 -8 -6 -10q-1 -1 -3 -3.5t-3 -3.5q-2 0 -2 2q-10 5 -11 5q-4 0 -4 2h-14q-29 0 -58 -29q-49 -55 -63 -113q-1 -4 -4 -12t-4 -12q-24 -93 -25 -99q-26 -116 -35.5 -150t-40.5 -126 q-8 -27 -10 -35q-32 -106 -63 -176q-2 -4 -2 -14l4 -52h-6h-2q-91 0 -179 31l-30 12h-4l-2 5l-3 8q-1 2 -2 6t-2 6z" />
<glyph unicode="~" horiz-adv-x="1026" d="M106 698l7 7q8 8 20 24q2 2 4.5 5.5t3.5 4.5q19 25 58 45q29 19 100 43q2 0 5.5 1t4.5 1q77 5 84 5q41 0 92 -7q45 -8 95 -22q24 -6 47 -6q49 0 102 26q11 5 33 27h2q4 4 4 6q8 4 14 4q76 -50 138 -117q2 0 2 -2l2 -2q-3 -14 -9 -22q-25 -20 -53 -37q-73 -49 -151 -49h-4 h-11q-77 0 -112 14h-6l-60 12q-88 15 -104 15h-15q-6 -2 -22 -2h-19q-62 0 -96 -66q-4 -4 -4 -10q-11 -6 -29 -10q-61 29 -118 76q-11 18 -5 36z" />
<glyph unicode="&#xa3;" horiz-adv-x="913" d="M102 137v56v16q11 37 37.5 60.5t75.5 45.5q10 5 35 15l18 6q9 3 15 12q0 2 4 6q11 22 12 27q13 74 2 149q0 12 -10 19l-15 12q-6 6 -18 6h-86q-6 0 -10 -2l-25 -8q-8 0 -10 2q-8 4 -18 14q-1 2 -3 2q0 2 -1 6t-1 5q0 14 2 20q13 58 13 133q0 9 2 11q1 4 10 22q1 0 2 1 t2 1q8 -8 27 -8q6 0 18 4q21 15 21 39q3 21 -4 41q-5 24 -15 53q-1 2 -2 6t-2 6t-2 6.5t-2 6.5t-2 5.5t-2 4.5q-23 85 -6 149q2 0 2 5q4 64 57 172q2 6 27 43q50 61 139 73q5 0 17 1t18 1h22q2 2 11 2q31 0 55 -12q81 -40 115 -76q57 -60 80 -122q8 -23 34 -76 q3 -5 8.5 -16.5t8.5 -16.5q0 -4 4 -8q4 -17 2 -29q0 -6 -2 -8q-22 -11 -27 -14q-52 -6 -117 -25q-14 -6 -47 -10l-4 4q-1 2 -2 8.5t-2 9.5q0 36 -8 60q-3 33 -33 63q-8 8 -12 10l-4 2q-1 1 -3 2.5t-3 2.5q-21 6 -41 6q-21 0 -33 -2q-25 -5 -43 -23t-21 -41q-8 -62 5 -119 l6 -18q24 -98 47 -145q1 -1 3 -4.5t3 -4.5q20 -20 51 -20h31h78q4 1 10.5 2t9.5 2l2 -4q7 -11 10 -25q-2 -8 -2 -24q-2 -18 -2 -58q0 -12 -2 -18v-35v-22q-4 -5 -2 -7q-6 -4 -30 -12q-20 8 -35 8q-4 0 -12 -1t-11 -1h-4q-11 -3 -20 -12q0 -1 -1 -2t-1 -2q-13 -13 -15 -27 q-2 -51 -16 -137v-12q-11 -55 -12 -58q-2 -12 -2 -32v-9q0 -8 8 -20q44 -47 73 -66q12 -10 29 -10h6h15h2q13 3 18 8q25 25 23 54v18v21q4 4 4 6t2 2q0 2 2 2q6 2 18 2q13 0 19 -2q40 -8 121 -12q3 0 8 -1.5t8 -1.5h4q0 -11 -6 -26q-11 -49 -12 -60q-9 -28 -11 -40 q-6 -33 -39 -101q-19 -35 -57 -57.5t-80 -22.5q-22 0 -43 6q-49 16 -94 39q-18 12 -33 21q-30 18 -57 18q-33 0 -62 -20q-42 -31 -92 -31h-6q-40 0 -72 29q-42 42 -45 106z" />
<glyph unicode="&#xad;" d="M102 713v8v31q0 71 2 108q2 10 11 21v2l4 4l2 2q21 -8 57 -8h2h17q59 0 145 -11q35 -6 82 -6q7 0 23 1t24 1h16q21 0 45 8h3l6 -6v-4q-9 -26 -13 -82v-10q0 -37 -2 -55v-2q0 -1 -6 -4h-2q-4 1 -22 10q-4 5 -15 8q-4 2 -12 2h-4q-4 0 -14 -1t-15 -1q-27 -6 -53 -6h-16h-39 q-10 2 -27 2h-10h-6h-41q-39 0 -62.5 -5t-62.5 -20q-6 2 -17 13z" />
<glyph unicode="&#x2000;" horiz-adv-x="882" />
<glyph unicode="&#x2001;" horiz-adv-x="1765" />
<glyph unicode="&#x2002;" horiz-adv-x="882" />
<glyph unicode="&#x2003;" horiz-adv-x="1765" />
<glyph unicode="&#x2004;" horiz-adv-x="588" />
<glyph unicode="&#x2005;" horiz-adv-x="441" />
<glyph unicode="&#x2006;" horiz-adv-x="294" />
<glyph unicode="&#x2007;" horiz-adv-x="294" />
<glyph unicode="&#x2008;" horiz-adv-x="220" />
<glyph unicode="&#x2009;" horiz-adv-x="353" />
<glyph unicode="&#x200a;" horiz-adv-x="98" />
<glyph unicode="&#x2010;" d="M102 713v8v31q0 71 2 108q2 10 11 21v2l4 4l2 2q21 -8 57 -8h2h17q59 0 145 -11q35 -6 82 -6q7 0 23 1t24 1h16q21 0 45 8h3l6 -6v-4q-9 -26 -13 -82v-10q0 -37 -2 -55v-2q0 -1 -6 -4h-2q-4 1 -22 10q-4 5 -15 8q-4 2 -12 2h-4q-4 0 -14 -1t-15 -1q-27 -6 -53 -6h-16h-39 q-10 2 -27 2h-10h-6h-41q-39 0 -62.5 -5t-62.5 -20q-6 2 -17 13z" />
<glyph unicode="&#x2011;" d="M102 713v8v31q0 71 2 108q2 10 11 21v2l4 4l2 2q21 -8 57 -8h2h17q59 0 145 -11q35 -6 82 -6q7 0 23 1t24 1h16q21 0 45 8h3l6 -6v-4q-9 -26 -13 -82v-10q0 -37 -2 -55v-2q0 -1 -6 -4h-2q-4 1 -22 10q-4 5 -15 8q-4 2 -12 2h-4q-4 0 -14 -1t-15 -1q-27 -6 -53 -6h-16h-39 q-10 2 -27 2h-10h-6h-41q-39 0 -62.5 -5t-62.5 -20q-6 2 -17 13z" />
<glyph unicode="&#x2012;" d="M102 713v8v31q0 71 2 108q2 10 11 21v2l4 4l2 2q21 -8 57 -8h2h17q59 0 145 -11q35 -6 82 -6q7 0 23 1t24 1h16q21 0 45 8h3l6 -6v-4q-9 -26 -13 -82v-10q0 -37 -2 -55v-2q0 -1 -6 -4h-2q-4 1 -22 10q-4 5 -15 8q-4 2 -12 2h-4q-4 0 -14 -1t-15 -1q-27 -6 -53 -6h-16h-39 q-10 2 -27 2h-10h-6h-41q-39 0 -62.5 -5t-62.5 -20q-6 2 -17 13z" />
<glyph unicode="&#x2013;" horiz-adv-x="1228" d="M102 713v8v31q0 71 5 108q4 10 25 21v2l10 4l4 2q49 -8 133 -8h5h40q137 0 338 -11q81 -6 191 -6q16 0 53.5 1t56.5 1h37q49 0 105 8h7l14 -6v-4q-21 -26 -30 -82v-10q0 -37 -5 -55v-2q0 -1 -14 -4h-5q-9 1 -51 10q-9 5 -35 8q-9 2 -28 2h-9q-10 0 -33 -1t-35 -1 q-63 -6 -124 -6h-37h-91q-23 2 -63 2h-23h-14h-96q-91 0 -145.5 -5t-145.5 -20q-14 2 -40 13z" />
<glyph unicode="&#x2014;" horiz-adv-x="2252" d="M102 713v8v31q0 71 9 108q10 10 52 21v2l18 4l10 2q98 -8 266 -8h9h79q275 0 677 -11q163 -6 382 -6q33 0 107.5 1t111.5 1h75q98 0 210 8h14l28 -6v-4q-42 -26 -61 -82v-10q0 -37 -9 -55v-2q0 -1 -28 -4h-9q-19 1 -103 10q-19 5 -70 8q-19 2 -56 2h-19q-18 0 -65 -1 t-70 -1q-126 -6 -247 -6h-75h-182q-46 2 -126 2h-46h-28h-192q-181 0 -291 -5t-292 -20q-28 2 -79 13z" />
<glyph unicode="&#x202f;" horiz-adv-x="353" />
<glyph unicode="&#x205f;" horiz-adv-x="441" />
<glyph unicode="&#x25fc;" horiz-adv-x="1413" d="M0 0v1413h1413v-1413h-1413z" />
</font>
</defs>
</svg>
