<?xml version="1.0" encoding="utf-8"?>
<!-- Generator: Avocode 2.3.2-ea60620 - http://avocode.com -->
<svg height="19" width="1020" xmlns:xlink="http://www.w3.org/1999/xlink" xmlns="http://www.w3.org/2000/svg" viewBox="0 0 1020 19">
    <path stroke-linejoin="miter" stroke-linecap="butt" stroke-width="3" stroke="#222221" fill="#222221" fill-rule="evenodd" d="M 530 11.99 C 530 11.99 530 8.98 530 8.98 C 530 8.98 1020.01 8.98 1020.01 8.98 C 1020.01 8.98 1020.01 11.99 1020.01 11.99 C 1020.01 11.99 530 11.99 530 11.99 Z M 514.62 12.45 C 514.62 12.45 515.73 19 515.73 19 C 515.73 19 513.09 17.55 513.09 17.55 C 513.09 17.55 509.96 15.96 509.96 15.96 C 509.96 15.96 508.04 16.84 508.04 16.84 C 508.04 16.84 507.65 17.06 507.65 17.06 C 507.65 17.06 507.11 17.57 507.11 17.57 C 507.11 17.57 504.51 18.89 504.51 18.89 C 504.51 18.89 505.44 13.26 505.44 13.26 C 505.44 13.26 505.32 12.49 505.32 12.49 C 505.32 12.49 504.85 11.58 504.85 11.58 C 504.85 11.58 501.08 7.87 501.08 7.87 C 501.08 7.87 505.96 7.2 505.96 7.2 C 505.96 7.2 507.21 6.91 507.21 6.91 C 507.21 6.91 508.8 3.56 508.8 3.56 C 508.8 3.56 509.97 0.95 509.97 0.95 C 509.97 0.95 511.9 5.22 511.9 5.22 C 511.9 5.22 512.73 6.95 512.73 6.95 C 512.73 6.95 515.51 7.25 515.51 7.25 C 515.51 7.25 519.08 7.82 519.08 7.82 C 519.08 7.82 516.13 10.95 516.13 10.95 C 516.13 10.95 514.62 12.45 514.62 12.45 Z M 0.01 8.98 C 0.01 8.98 490.02 8.98 490.02 8.98 C 490.02 8.98 490.02 11.99 490.02 11.99 C 490.02 11.99 0.01 11.99 0.01 11.99 C 0.01 11.99 0.01 8.98 0.01 8.98 Z" />
</svg>